<?xml version="1.0" encoding="utf-8"?>
<svg class="fixed w-auto max-h-screen left-50 translate transform z-0" viewBox="0 0 491 734" fill="none" xmlns="http://www.w3.org/2000/svg">
  <g opacity="0.05">
    <path d="M263.682 28.1649C269.089 28.1649 272.353 23.1443 272.364 14.4992C272.374 5.91811 269.068 1 263.682 1C258.286 1 255.011 5.9053 255 14.4992C254.979 23.1187 258.265 28.1521 263.682 28.1649ZM263.682 23.5669C262.811 23.5669 262.044 23.1827 261.414 22.4271L267.052 8.91508C267.482 10.3239 267.724 12.1938 267.724 14.4992C267.734 20.5444 266.139 23.5669 263.682 23.5669ZM260.26 20.0321C259.85 18.6232 259.63 16.7789 259.63 14.4992C259.64 8.54366 261.225 5.54669 263.682 5.54669C264.511 5.54669 265.246 5.89249 265.845 6.5841L260.26 20.0321Z" fill="#fff"/>
    <path d="M289.829 1.38423H285.378C285.325 2.98517 283.477 5.71319 280.716 5.71319V10.119C283.089 10.119 284.632 9.04316 285.094 8.17224H285.294V27.6141H289.829V1.38423Z" fill="#fff"/>
    <path d="M309.152 1.38423H304.701C304.648 2.98517 302.801 5.71319 300.04 5.71319V10.119C302.412 10.119 303.955 9.04316 304.417 8.17224H304.617V27.6141H309.152V1.38423Z" fill="#fff"/>
    <path d="M328.003 28.1649C333.409 28.1649 336.674 23.1443 336.684 14.4992C336.695 5.91811 333.388 1 328.003 1C322.607 1 319.331 5.9053 319.321 14.4992C319.3 23.1187 322.586 28.1521 328.003 28.1649ZM328.003 23.5669C327.131 23.5669 326.365 23.1827 325.735 22.4271L331.372 8.91508C331.803 10.3239 332.044 12.1938 332.044 14.4992C332.055 20.5444 330.459 23.5669 328.003 23.5669ZM324.58 20.0321C324.171 18.6232 323.95 16.7789 323.95 14.4992C323.961 8.54366 325.546 5.54669 328.003 5.54669C328.832 5.54669 329.567 5.89249 330.165 6.5841L324.58 20.0321Z" fill="#fff"/>
    <path d="M353.677 28.1649C359.083 28.1649 362.348 23.1443 362.359 14.4992C362.369 5.91811 359.062 1 353.677 1C348.281 1 345.006 5.9053 344.995 14.4992C344.974 23.1187 348.26 28.1521 353.677 28.1649ZM353.677 23.5669C352.806 23.5669 352.039 23.1827 351.409 22.4271L357.047 8.91508C357.477 10.3239 357.719 12.1938 357.719 14.4992C357.729 20.5444 356.134 23.5669 353.677 23.5669ZM350.255 20.0321C349.845 18.6232 349.625 16.7789 349.625 14.4992C349.635 8.54366 351.22 5.54669 353.677 5.54669C354.506 5.54669 355.241 5.89249 355.84 6.5841L350.255 20.0321Z" fill="#fff"/>
    <path d="M379.824 1.38423H375.373C375.32 2.98517 373.472 5.71319 370.711 5.71319V10.119C373.084 10.119 374.627 9.04316 375.089 8.17224H375.289V27.6141H379.824V1.38423Z" fill="#fff"/>
    <path d="M399.147 1.38423H394.696C394.643 2.98517 392.796 5.71319 390.035 5.71319V10.119C392.407 10.119 393.95 9.04316 394.412 8.17224H394.612V27.6141H399.147V1.38423Z" fill="#fff"/>
    <path d="M417.998 28.1649C423.404 28.1649 426.669 23.1443 426.679 14.4992C426.69 5.91811 423.383 1 417.998 1C412.602 1 409.326 5.9053 409.316 14.4992C409.295 23.1187 412.581 28.1521 417.998 28.1649ZM417.998 23.5669C417.126 23.5669 416.36 23.1827 415.73 22.4271L421.367 8.91508C421.798 10.3239 422.039 12.1938 422.039 14.4992C422.05 20.5444 420.454 23.5669 417.998 23.5669ZM414.575 20.0321C414.166 18.6232 413.945 16.7789 413.945 14.4992C413.956 8.54366 415.541 5.54669 417.998 5.54669C418.827 5.54669 419.562 5.89249 420.16 6.5841L414.575 20.0321Z" fill="#fff"/>
    <path d="M443.672 28.1649C449.078 28.1649 452.343 23.1443 452.354 14.4992C452.364 5.91811 449.057 1 443.672 1C438.276 1 435 5.9053 434.99 14.4992C434.969 23.1187 438.255 28.1521 443.672 28.1649ZM443.672 23.5669C442.801 23.5669 442.034 23.1827 441.404 22.4271L447.042 8.91508C447.472 10.3239 447.714 12.1938 447.714 14.4992C447.724 20.5444 446.128 23.5669 443.672 23.5669ZM440.25 20.0321C439.84 18.6232 439.62 16.7789 439.62 14.4992C439.63 8.54366 441.215 5.54669 443.672 5.54669C444.501 5.54669 445.236 5.89249 445.835 6.5841L440.25 20.0321Z" fill="#fff"/>
    <path d="M469.819 1.38423H465.368C465.315 2.98517 463.467 5.71319 460.706 5.71319V10.119C463.079 10.119 464.622 9.04316 465.084 8.17224H465.284V27.6141H469.819V1.38423Z" fill="#fff"/>
    <path d="M489.142 1.38423H484.691C484.638 2.98517 482.79 5.71319 480.029 5.71319V10.119C482.402 10.119 483.945 9.04316 484.407 8.17224H484.607V27.6141H489.142V1.38423Z" fill="#fff"/>
    <path d="M264.154 60.1205H259.703C259.651 61.7214 257.803 64.4495 255.042 64.4495V68.8553C257.415 68.8553 258.958 67.7794 259.42 66.9085H259.619V86.3504H264.154V60.1205Z" fill="#fff"/>
    <path d="M283.005 86.9011C288.412 86.9011 291.676 81.8806 291.687 73.2355C291.697 64.6544 288.391 59.7363 283.005 59.7363C277.609 59.7363 274.334 64.6416 274.323 73.2355C274.302 81.8549 277.588 86.8883 283.005 86.9011ZM283.005 82.3032C282.134 82.3032 281.367 81.919 280.737 81.1633L286.375 67.6513C286.805 69.0602 287.047 70.9301 287.047 73.2355C287.057 79.2806 285.462 82.3032 283.005 82.3032ZM279.583 78.7683C279.173 77.3595 278.953 75.5152 278.953 73.2355C278.963 67.2799 280.549 64.283 283.005 64.283C283.834 64.283 284.569 64.6288 285.168 65.3204L279.583 78.7683Z" fill="#fff"/>
    <path d="M308.679 86.9011C314.086 86.9011 317.351 81.8806 317.361 73.2355C317.372 64.6544 314.065 59.7363 308.679 59.7363C303.283 59.7363 300.008 64.6416 299.998 73.2355C299.977 81.8549 303.262 86.8883 308.679 86.9011ZM308.679 82.3032C307.808 82.3032 307.042 81.919 306.412 81.1633L312.049 67.6513C312.48 69.0602 312.721 70.9301 312.721 73.2355C312.732 79.2806 311.136 82.3032 308.679 82.3032ZM305.257 78.7683C304.848 77.3595 304.627 75.5152 304.627 73.2355C304.638 67.2799 306.223 64.283 308.679 64.283C309.509 64.283 310.244 64.6288 310.842 65.3204L305.257 78.7683Z" fill="#fff"/>
    <path d="M334.826 60.1205H330.375C330.323 61.7214 328.475 64.4495 325.714 64.4495V68.8553C328.087 68.8553 329.63 67.7794 330.092 66.9085H330.291V86.3504H334.826V60.1205Z" fill="#fff"/>
    <path d="M353.677 86.9011C359.083 86.9011 362.348 81.8806 362.359 73.2355C362.369 64.6544 359.062 59.7363 353.677 59.7363C348.281 59.7363 345.006 64.6416 344.995 73.2355C344.974 81.8549 348.26 86.8883 353.677 86.9011ZM353.677 82.3032C352.806 82.3032 352.039 81.919 351.409 81.1633L357.047 67.6513C357.477 69.0602 357.719 70.9301 357.719 73.2355C357.729 79.2806 356.134 82.3032 353.677 82.3032ZM350.255 78.7683C349.845 77.3595 349.625 75.5152 349.625 73.2355C349.635 67.2799 351.22 64.283 353.677 64.283C354.506 64.283 355.241 64.6288 355.84 65.3204L350.255 78.7683Z" fill="#fff"/>
    <path d="M379.351 86.9011C384.758 86.9011 388.023 81.8806 388.033 73.2355C388.044 64.6544 384.737 59.7363 379.351 59.7363C373.955 59.7363 370.68 64.6416 370.669 73.2355C370.648 81.8549 373.934 86.8883 379.351 86.9011ZM379.351 82.3032C378.48 82.3032 377.714 81.919 377.084 81.1633L382.721 67.6513C383.152 69.0602 383.393 70.9301 383.393 73.2355C383.404 79.2806 381.808 82.3032 379.351 82.3032ZM375.929 78.7683C375.52 77.3595 375.299 75.5152 375.299 73.2355C375.31 67.2799 376.895 64.283 379.351 64.283C380.181 64.283 380.916 64.6288 381.514 65.3204L375.929 78.7683Z" fill="#fff"/>
    <path d="M405.498 60.1205H401.047C400.995 61.7214 399.147 64.4495 396.386 64.4495V68.8553C398.758 68.8553 400.302 67.7794 400.764 66.9085H400.963V86.3504H405.498V60.1205Z" fill="#fff"/>
    <path d="M424.821 60.1205H420.37C420.318 61.7214 418.47 64.4495 415.709 64.4495V68.8553C418.081 68.8553 419.625 67.7794 420.087 66.9085H420.286V86.3504H424.821V60.1205Z" fill="#fff"/>
    <path d="M443.672 86.9011C449.078 86.9011 452.343 81.8806 452.354 73.2355C452.364 64.6544 449.057 59.7363 443.672 59.7363C438.276 59.7363 435 64.6416 434.99 73.2355C434.969 81.8549 438.255 86.8883 443.672 86.9011ZM443.672 82.3032C442.801 82.3032 442.034 81.919 441.404 81.1633L447.042 67.6513C447.472 69.0602 447.714 70.9301 447.714 73.2355C447.724 79.2806 446.128 82.3032 443.672 82.3032ZM440.25 78.7683C439.84 77.3595 439.62 75.5152 439.62 73.2355C439.63 67.2799 441.215 64.283 443.672 64.283C444.501 64.283 445.236 64.6288 445.835 65.3204L440.25 78.7683Z" fill="#fff"/>
    <path d="M469.819 60.1205H465.368C465.315 61.7214 463.467 64.4495 460.706 64.4495V68.8553C463.079 68.8553 464.622 67.7794 465.084 66.9085H465.284V86.3504H469.819V60.1205Z" fill="#fff"/>
    <path d="M489.142 60.1205H484.691C484.638 61.7214 482.79 64.4495 480.029 64.4495V68.8553C482.402 68.8553 483.945 67.7794 484.407 66.9085H484.607V86.3504H489.142V60.1205Z" fill="#fff"/>
    <path d="M264.154 118.857H259.703C259.651 120.458 257.803 123.186 255.042 123.186V127.592C257.415 127.592 258.958 126.516 259.42 125.645H259.619V145.087H264.154V118.857Z" fill="#fff"/>
    <path d="M283.477 118.857H279.026C278.974 120.458 277.126 123.186 274.365 123.186V127.592C276.738 127.592 278.281 126.516 278.743 125.645H278.942V145.087H283.477V118.857Z" fill="#fff"/>
    <path d="M302.328 145.637C307.735 145.637 311 140.617 311.01 131.972C311.021 123.391 307.714 118.473 302.328 118.473C296.932 118.473 293.657 123.378 293.646 131.972C293.625 140.591 296.911 145.625 302.328 145.637ZM302.328 141.039C301.457 141.039 300.69 140.655 300.061 139.9L305.698 126.388C306.128 127.796 306.37 129.666 306.37 131.972C306.38 138.017 304.785 141.039 302.328 141.039ZM298.906 137.505C298.496 136.096 298.276 134.251 298.276 131.972C298.286 126.016 299.872 123.019 302.328 123.019C303.157 123.019 303.892 123.365 304.491 124.057L298.906 137.505Z" fill="#fff"/>
    <path d="M328.475 118.857H324.024C323.971 120.458 322.124 123.186 319.363 123.186V127.592C321.735 127.592 323.278 126.516 323.74 125.645H323.94V145.087H328.475V118.857Z" fill="#fff"/>
    <path d="M347.798 118.857H343.347C343.294 120.458 341.447 123.186 338.686 123.186V127.592C341.058 127.592 342.601 126.516 343.063 125.645H343.263V145.087H347.798V118.857Z" fill="#fff"/>
    <path d="M366.649 145.637C372.055 145.637 375.32 140.617 375.331 131.972C375.341 123.391 372.034 118.473 366.649 118.473C361.253 118.473 357.977 123.378 357.967 131.972C357.946 140.591 361.232 145.625 366.649 145.637ZM366.649 141.039C365.777 141.039 365.011 140.655 364.381 139.9L370.019 126.388C370.449 127.796 370.69 129.666 370.69 131.972C370.701 138.017 369.105 141.039 366.649 141.039ZM363.226 137.505C362.817 136.096 362.596 134.251 362.596 131.972C362.607 126.016 364.192 123.019 366.649 123.019C367.478 123.019 368.213 123.365 368.811 124.057L363.226 137.505Z" fill="#fff"/>
    <path d="M392.796 118.857H388.344C388.292 120.458 386.444 123.186 383.683 123.186V127.592C386.056 127.592 387.599 126.516 388.061 125.645H388.26V145.087H392.796V118.857Z" fill="#fff"/>
    <path d="M412.119 118.857H407.667C407.615 120.458 405.767 123.186 403.006 123.186V127.592C405.379 127.592 406.922 126.516 407.384 125.645H407.583V145.087H412.119V118.857Z" fill="#fff"/>
    <path d="M431.442 118.857H426.99C426.938 120.458 425.09 123.186 422.329 123.186V127.592C424.702 127.592 426.245 126.516 426.707 125.645H426.906V145.087H431.442V118.857Z" fill="#fff"/>
    <path d="M450.292 145.637C455.699 145.637 458.964 140.617 458.974 131.972C458.985 123.391 455.678 118.473 450.292 118.473C444.896 118.473 441.621 123.378 441.61 131.972C441.589 140.591 444.875 145.625 450.292 145.637ZM450.292 141.039C449.421 141.039 448.655 140.655 448.025 139.9L453.662 126.388C454.093 127.796 454.334 129.666 454.334 131.972C454.345 138.017 452.749 141.039 450.292 141.039ZM446.87 137.505C446.461 136.096 446.24 134.251 446.24 131.972C446.251 126.016 447.836 123.019 450.292 123.019C451.122 123.019 451.857 123.365 452.455 124.057L446.87 137.505Z" fill="#fff"/>
    <path d="M475.967 145.637C481.373 145.637 484.638 140.617 484.649 131.972C484.659 123.391 481.352 118.473 475.967 118.473C470.571 118.473 467.295 123.378 467.285 131.972C467.264 140.591 470.55 145.625 475.967 145.637ZM475.967 141.039C475.095 141.039 474.329 140.655 473.699 139.9L479.337 126.388C479.767 127.796 480.008 129.666 480.008 131.972C480.019 138.017 478.423 141.039 475.967 141.039ZM472.544 137.505C472.135 136.096 471.914 134.251 471.914 131.972C471.925 126.016 473.51 123.019 475.967 123.019C476.796 123.019 477.531 123.365 478.129 124.057L472.544 137.505Z" fill="#fff"/>
    <path d="M264.154 177.593H259.703C259.651 179.194 257.803 181.922 255.042 181.922V186.328C257.415 186.328 258.958 185.252 259.42 184.381H259.619V203.823H264.154V177.593Z" fill="#fff"/>
    <path d="M283.477 177.593H279.026C278.974 179.194 277.126 181.922 274.365 181.922V186.328C276.738 186.328 278.281 185.252 278.743 184.381H278.942V203.823H283.477V177.593Z" fill="#fff"/>
    <path d="M302.801 177.593H298.349C298.297 179.194 296.449 181.922 293.688 181.922V186.328C296.061 186.328 297.604 185.252 298.066 184.381H298.265V203.823H302.801V177.593Z" fill="#fff"/>
    <path d="M321.651 204.374C327.058 204.374 330.323 199.353 330.333 190.708C330.344 182.127 327.037 177.209 321.651 177.209C316.255 177.209 312.98 182.114 312.969 190.708C312.948 199.327 316.234 204.361 321.651 204.374ZM321.651 199.776C320.78 199.776 320.014 199.392 319.384 198.636L325.021 185.124C325.452 186.533 325.693 188.403 325.693 190.708C325.703 196.753 324.108 199.776 321.651 199.776ZM318.229 196.241C317.819 194.832 317.599 192.988 317.599 190.708C317.609 184.752 319.195 181.755 321.651 181.755C322.481 181.755 323.215 182.101 323.814 182.793L318.229 196.241Z" fill="#fff"/>
    <path d="M347.798 177.593H343.347C343.294 179.194 341.447 181.922 338.686 181.922V186.328C341.058 186.328 342.601 185.252 343.063 184.381H343.263V203.823H347.798V177.593Z" fill="#fff"/>
    <path d="M366.649 204.374C372.055 204.374 375.32 199.353 375.331 190.708C375.341 182.127 372.034 177.209 366.649 177.209C361.253 177.209 357.977 182.114 357.967 190.708C357.946 199.327 361.232 204.361 366.649 204.374ZM366.649 199.776C365.777 199.776 365.011 199.392 364.381 198.636L370.019 185.124C370.449 186.533 370.69 188.403 370.69 190.708C370.701 196.753 369.105 199.776 366.649 199.776ZM363.226 196.241C362.817 194.832 362.596 192.988 362.596 190.708C362.607 184.752 364.192 181.755 366.649 181.755C367.478 181.755 368.213 182.101 368.811 182.793L363.226 196.241Z" fill="#fff"/>
    <path d="M392.323 204.374C397.73 204.374 400.995 199.353 401.005 190.708C401.016 182.127 397.709 177.209 392.323 177.209C386.927 177.209 383.652 182.114 383.641 190.708C383.62 199.327 386.906 204.361 392.323 204.374ZM392.323 199.776C391.452 199.776 390.685 199.392 390.056 198.636L395.693 185.124C396.123 186.533 396.365 188.403 396.365 190.708C396.375 196.753 394.78 199.776 392.323 199.776ZM388.901 196.241C388.491 194.832 388.271 192.988 388.271 190.708C388.281 184.752 389.867 181.755 392.323 181.755C393.152 181.755 393.887 182.101 394.486 182.793L388.901 196.241Z" fill="#fff"/>
    <path d="M417.998 204.374C423.404 204.374 426.669 199.353 426.679 190.708C426.69 182.127 423.383 177.209 417.998 177.209C412.602 177.209 409.326 182.114 409.316 190.708C409.295 199.327 412.581 204.361 417.998 204.374ZM417.998 199.776C417.126 199.776 416.36 199.392 415.73 198.636L421.367 185.124C421.798 186.533 422.039 188.403 422.039 190.708C422.05 196.753 420.454 199.776 417.998 199.776ZM414.575 196.241C414.166 194.832 413.945 192.988 413.945 190.708C413.956 184.752 415.541 181.755 417.998 181.755C418.827 181.755 419.562 182.101 420.16 182.793L414.575 196.241Z" fill="#fff"/>
    <path d="M444.144 177.593H439.693C439.641 179.194 437.793 181.922 435.032 181.922V186.328C437.405 186.328 438.948 185.252 439.41 184.381H439.609V203.823H444.144V177.593Z" fill="#fff"/>
    <path d="M463.467 177.593H459.016C458.964 179.194 457.116 181.922 454.355 181.922V186.328C456.728 186.328 458.271 185.252 458.733 184.381H458.932V203.823H463.467V177.593Z" fill="#fff"/>
    <path d="M482.318 204.374C487.725 204.374 490.989 199.353 491 190.708C491.01 182.127 487.704 177.209 482.318 177.209C476.922 177.209 473.647 182.114 473.636 190.708C473.615 199.327 476.901 204.361 482.318 204.374ZM482.318 199.776C481.447 199.776 480.68 199.392 480.05 198.636L485.688 185.124C486.118 186.533 486.36 188.403 486.36 190.708C486.37 196.753 484.775 199.776 482.318 199.776ZM478.896 196.241C478.486 194.832 478.266 192.988 478.266 190.708C478.276 184.752 479.861 181.755 482.318 181.755C483.147 181.755 483.882 182.101 484.481 182.793L478.896 196.241Z" fill="#fff"/>
    <path d="M263.682 263.11C269.089 263.11 272.353 258.089 272.364 249.444C272.374 240.863 269.068 235.945 263.682 235.945C258.286 235.945 255.011 240.85 255 249.444C254.979 258.064 258.265 263.097 263.682 263.11ZM263.682 258.512C262.811 258.512 262.044 258.128 261.414 257.372L267.052 243.86C267.482 245.269 267.724 247.139 267.724 249.444C267.734 255.489 266.139 258.512 263.682 258.512ZM260.26 254.977C259.85 253.568 259.63 251.724 259.63 249.444C259.64 243.489 261.225 240.492 263.682 240.492C264.511 240.492 265.246 240.838 265.845 241.529L260.26 254.977Z" fill="#fff"/>
    <path d="M289.829 236.329H285.378C285.325 237.93 283.477 240.658 280.716 240.658V245.064C283.089 245.064 284.632 243.988 285.094 243.117H285.294V262.559H289.829V236.329Z" fill="#fff"/>
    <path d="M308.679 263.11C314.086 263.11 317.351 258.089 317.361 249.444C317.372 240.863 314.065 235.945 308.679 235.945C303.283 235.945 300.008 240.85 299.998 249.444C299.977 258.064 303.262 263.097 308.679 263.11ZM308.679 258.512C307.808 258.512 307.042 258.128 306.412 257.372L312.049 243.86C312.48 245.269 312.721 247.139 312.721 249.444C312.732 255.489 311.136 258.512 308.679 258.512ZM305.257 254.977C304.848 253.568 304.627 251.724 304.627 249.444C304.638 243.489 306.223 240.492 308.679 240.492C309.509 240.492 310.244 240.838 310.842 241.529L305.257 254.977Z" fill="#fff"/>
    <path d="M334.826 236.329H330.375C330.323 237.93 328.475 240.658 325.714 240.658V245.064C328.087 245.064 329.63 243.988 330.092 243.117H330.291V262.559H334.826V236.329Z" fill="#fff"/>
    <path d="M353.677 263.11C359.083 263.11 362.348 258.089 362.359 249.444C362.369 240.863 359.062 235.945 353.677 235.945C348.281 235.945 345.006 240.85 344.995 249.444C344.974 258.064 348.26 263.097 353.677 263.11ZM353.677 258.512C352.806 258.512 352.039 258.128 351.409 257.372L357.047 243.86C357.477 245.269 357.719 247.139 357.719 249.444C357.729 255.489 356.134 258.512 353.677 258.512ZM350.255 254.977C349.845 253.568 349.625 251.724 349.625 249.444C349.635 243.489 351.22 240.492 353.677 240.492C354.506 240.492 355.241 240.838 355.84 241.529L350.255 254.977Z" fill="#fff"/>
    <path d="M379.824 236.329H375.373C375.32 237.93 373.472 240.658 370.711 240.658V245.064C373.084 245.064 374.627 243.988 375.089 243.117H375.289V262.559H379.824V236.329Z" fill="#fff"/>
    <path d="M399.147 236.329H394.696C394.643 237.93 392.796 240.658 390.035 240.658V245.064C392.407 245.064 393.95 243.988 394.412 243.117H394.612V262.559H399.147V236.329Z" fill="#fff"/>
    <path d="M417.998 263.11C423.404 263.11 426.669 258.089 426.679 249.444C426.69 240.863 423.383 235.945 417.998 235.945C412.602 235.945 409.326 240.85 409.316 249.444C409.295 258.064 412.581 263.097 417.998 263.11ZM417.998 258.512C417.126 258.512 416.36 258.128 415.73 257.372L421.367 243.86C421.798 245.269 422.039 247.139 422.039 249.444C422.05 255.489 420.454 258.512 417.998 258.512ZM414.575 254.977C414.166 253.568 413.945 251.724 413.945 249.444C413.956 243.489 415.541 240.492 417.998 240.492C418.827 240.492 419.562 240.838 420.16 241.529L414.575 254.977Z" fill="#fff"/>
    <path d="M444.144 236.329H439.693C439.641 237.93 437.793 240.658 435.032 240.658V245.064C437.405 245.064 438.948 243.988 439.41 243.117H439.609V262.559H444.144V236.329Z" fill="#fff"/>
    <path d="M463.467 236.329H459.016C458.964 237.93 457.116 240.658 454.355 240.658V245.064C456.728 245.064 458.271 243.988 458.733 243.117H458.932V262.559H463.467V236.329Z" fill="#fff"/>
    <path d="M482.79 236.329H478.339C478.287 237.93 476.439 240.658 473.678 240.658V245.064C476.051 245.064 477.594 243.988 478.056 243.117H478.255V262.559H482.79V236.329Z" fill="#fff"/>
    <path d="M263.682 321.846C269.089 321.846 272.353 316.826 272.364 308.181C272.374 299.599 269.068 294.681 263.682 294.681C258.286 294.681 255.011 299.587 255 308.181C254.979 316.8 258.265 321.833 263.682 321.846ZM263.682 317.248C262.811 317.248 262.044 316.864 261.414 316.108L267.052 302.596C267.482 304.005 267.724 305.875 267.724 308.181C267.734 314.226 266.139 317.248 263.682 317.248ZM260.26 313.713C259.85 312.305 259.63 310.46 259.63 308.181C259.64 302.225 261.225 299.228 263.682 299.228C264.511 299.228 265.246 299.574 265.845 300.265L260.26 313.713Z" fill="#fff"/>
    <path d="M289.356 321.846C294.763 321.846 298.028 316.826 298.038 308.181C298.049 299.599 294.742 294.681 289.356 294.681C283.96 294.681 280.685 299.587 280.675 308.181C280.654 316.8 283.939 321.833 289.356 321.846ZM289.356 317.248C288.485 317.248 287.719 316.864 287.089 316.108L292.726 302.596C293.157 304.005 293.398 305.875 293.398 308.181C293.409 314.226 291.813 317.248 289.356 317.248ZM285.934 313.713C285.525 312.305 285.304 310.46 285.304 308.181C285.315 302.225 286.9 299.228 289.356 299.228C290.186 299.228 290.921 299.574 291.519 300.265L285.934 313.713Z" fill="#fff"/>
    <path d="M315.503 295.066H311.052C311 296.666 309.152 299.395 306.391 299.395V303.8C308.763 303.8 310.307 302.724 310.769 301.854H310.968V321.295H315.503V295.066Z" fill="#fff"/>
    <path d="M334.826 295.066H330.375C330.323 296.666 328.475 299.395 325.714 299.395V303.8C328.087 303.8 329.63 302.724 330.092 301.854H330.291V321.295H334.826V295.066Z" fill="#fff"/>
    <path d="M353.677 321.846C359.083 321.846 362.348 316.826 362.359 308.181C362.369 299.599 359.062 294.681 353.677 294.681C348.281 294.681 345.006 299.587 344.995 308.181C344.974 316.8 348.26 321.833 353.677 321.846ZM353.677 317.248C352.806 317.248 352.039 316.864 351.409 316.108L357.047 302.596C357.477 304.005 357.719 305.875 357.719 308.181C357.729 314.226 356.134 317.248 353.677 317.248ZM350.255 313.713C349.845 312.305 349.625 310.46 349.625 308.181C349.635 302.225 351.22 299.228 353.677 299.228C354.506 299.228 355.241 299.574 355.84 300.265L350.255 313.713Z" fill="#fff"/>
    <path d="M379.351 321.846C384.758 321.846 388.023 316.826 388.033 308.181C388.044 299.599 384.737 294.681 379.351 294.681C373.955 294.681 370.68 299.587 370.669 308.181C370.648 316.8 373.934 321.833 379.351 321.846ZM379.351 317.248C378.48 317.248 377.714 316.864 377.084 316.108L382.721 302.596C383.152 304.005 383.393 305.875 383.393 308.181C383.404 314.226 381.808 317.248 379.351 317.248ZM375.929 313.713C375.52 312.305 375.299 310.46 375.299 308.181C375.31 302.225 376.895 299.228 379.351 299.228C380.181 299.228 380.916 299.574 381.514 300.265L375.929 313.713Z" fill="#fff"/>
    <path d="M405.498 295.066H401.047C400.995 296.666 399.147 299.395 396.386 299.395V303.8C398.758 303.8 400.302 302.724 400.764 301.854H400.963V321.295H405.498V295.066Z" fill="#fff"/>
    <path d="M424.349 321.846C429.755 321.846 433.02 316.826 433.031 308.181C433.041 299.599 429.734 294.681 424.349 294.681C418.953 294.681 415.677 299.587 415.667 308.181C415.646 316.8 418.932 321.833 424.349 321.846ZM424.349 317.248C423.478 317.248 422.711 316.864 422.081 316.108L427.719 302.596C428.149 304.005 428.391 305.875 428.391 308.181C428.401 314.226 426.805 317.248 424.349 317.248ZM420.926 313.713C420.517 312.305 420.297 310.46 420.297 308.181C420.307 302.225 421.892 299.228 424.349 299.228C425.178 299.228 425.913 299.574 426.511 300.265L420.926 313.713Z" fill="#fff"/>
    <path d="M450.023 321.846C455.43 321.846 458.695 316.826 458.705 308.181C458.716 299.599 455.409 294.681 450.023 294.681C444.627 294.681 441.352 299.587 441.341 308.181C441.32 316.8 444.606 321.833 450.023 321.846ZM450.023 317.248C449.152 317.248 448.386 316.864 447.756 316.108L453.393 302.596C453.824 304.005 454.065 305.875 454.065 308.181C454.075 314.226 452.48 317.248 450.023 317.248ZM446.601 313.713C446.191 312.305 445.971 310.46 445.971 308.181C445.981 302.225 447.567 299.228 450.023 299.228C450.853 299.228 451.587 299.574 452.186 300.265L446.601 313.713Z" fill="#fff"/>
    <path d="M475.698 321.846C481.104 321.846 484.369 316.826 484.38 308.181C484.39 299.599 481.083 294.681 475.698 294.681C470.302 294.681 467.026 299.587 467.016 308.181C466.995 316.8 470.281 321.833 475.698 321.846ZM475.698 317.248C474.826 317.248 474.06 316.864 473.43 316.108L479.068 302.596C479.498 304.005 479.739 305.875 479.739 308.181C479.75 314.226 478.154 317.248 475.698 317.248ZM472.275 313.713C471.866 312.305 471.645 310.46 471.645 308.181C471.656 302.225 473.241 299.228 475.698 299.228C476.527 299.228 477.262 299.574 477.86 300.265L472.275 313.713Z" fill="#fff"/>
    <path d="M263.682 380.582C269.089 380.582 272.353 375.562 272.364 366.917C272.374 358.336 269.068 353.418 263.682 353.418C258.286 353.418 255.011 358.323 255 366.917C254.979 375.536 258.265 380.57 263.682 380.582ZM263.682 375.985C262.811 375.985 262.044 375.6 261.414 374.845L267.052 361.333C267.482 362.742 267.724 364.611 267.724 366.917C267.734 372.962 266.139 375.985 263.682 375.985ZM260.26 372.45C259.85 371.041 259.63 369.197 259.63 366.917C259.64 360.961 261.225 357.964 263.682 357.964C264.511 357.964 265.246 358.31 265.845 359.002L260.26 372.45Z" fill="#fff"/>
    <path d="M289.829 353.802H285.378C285.325 355.403 283.477 358.131 280.716 358.131V362.537C283.089 362.537 284.632 361.461 285.094 360.59H285.294V380.032H289.829V353.802Z" fill="#fff"/>
    <path d="M308.679 380.582C314.086 380.582 317.351 375.562 317.361 366.917C317.372 358.336 314.065 353.418 308.679 353.418C303.283 353.418 300.008 358.323 299.998 366.917C299.977 375.536 303.262 380.57 308.679 380.582ZM308.679 375.985C307.808 375.985 307.042 375.6 306.412 374.845L312.049 361.333C312.48 362.742 312.721 364.611 312.721 366.917C312.732 372.962 311.136 375.985 308.679 375.985ZM305.257 372.45C304.848 371.041 304.627 369.197 304.627 366.917C304.638 360.961 306.223 357.964 308.679 357.964C309.509 357.964 310.244 358.31 310.842 359.002L305.257 372.45Z" fill="#fff"/>
    <path d="M334.354 380.582C339.76 380.582 343.025 375.562 343.036 366.917C343.046 358.336 339.739 353.418 334.354 353.418C328.958 353.418 325.682 358.323 325.672 366.917C325.651 375.536 328.937 380.57 334.354 380.582ZM334.354 375.985C333.483 375.985 332.716 375.6 332.086 374.845L337.724 361.333C338.154 362.742 338.396 364.611 338.396 366.917C338.406 372.962 336.81 375.985 334.354 375.985ZM330.932 372.45C330.522 371.041 330.302 369.197 330.302 366.917C330.312 360.961 331.897 357.964 334.354 357.964C335.183 357.964 335.918 358.31 336.516 359.002L330.932 372.45Z" fill="#fff"/>
    <path d="M360.028 380.582C365.435 380.582 368.7 375.562 368.71 366.917C368.721 358.336 365.414 353.418 360.028 353.418C354.632 353.418 351.357 358.323 351.346 366.917C351.325 375.536 354.611 380.57 360.028 380.582ZM360.028 375.985C359.157 375.985 358.391 375.6 357.761 374.845L363.398 361.333C363.829 362.742 364.07 364.611 364.07 366.917C364.081 372.962 362.485 375.985 360.028 375.985ZM356.606 372.45C356.196 371.041 355.976 369.197 355.976 366.917C355.987 360.961 357.572 357.964 360.028 357.964C360.858 357.964 361.593 358.31 362.191 359.002L356.606 372.45Z" fill="#fff"/>
    <path d="M385.703 380.582C391.109 380.582 394.374 375.562 394.385 366.917C394.395 358.336 391.088 353.418 385.703 353.418C380.307 353.418 377.031 358.323 377.021 366.917C377 375.536 380.286 380.57 385.703 380.582ZM385.703 375.985C384.831 375.985 384.065 375.6 383.435 374.845L389.073 361.333C389.503 362.742 389.744 364.611 389.744 366.917C389.755 372.962 388.159 375.985 385.703 375.985ZM382.28 372.45C381.871 371.041 381.65 369.197 381.65 366.917C381.661 360.961 383.246 357.964 385.703 357.964C386.532 357.964 387.267 358.31 387.865 359.002L382.28 372.45Z" fill="#fff"/>
    <path d="M411.377 380.582C416.784 380.582 420.049 375.562 420.059 366.917C420.07 358.336 416.763 353.418 411.377 353.418C405.981 353.418 402.706 358.323 402.695 366.917C402.674 375.536 405.96 380.57 411.377 380.582ZM411.377 375.985C410.506 375.985 409.739 375.6 409.11 374.845L414.747 361.333C415.177 362.742 415.419 364.611 415.419 366.917C415.429 372.962 413.834 375.985 411.377 375.985ZM407.955 372.45C407.545 371.041 407.325 369.197 407.325 366.917C407.335 360.961 408.921 357.964 411.377 357.964C412.206 357.964 412.941 358.31 413.54 359.002L407.955 372.45Z" fill="#fff"/>
    <path d="M437.052 380.582C442.458 380.582 445.723 375.562 445.733 366.917C445.744 358.336 442.437 353.418 437.052 353.418C431.656 353.418 428.38 358.323 428.37 366.917C428.349 375.536 431.635 380.57 437.052 380.582ZM437.052 375.985C436.18 375.985 435.414 375.6 434.784 374.845L440.421 361.333C440.852 362.742 441.093 364.611 441.093 366.917C441.104 372.962 439.508 375.985 437.052 375.985ZM433.629 372.45C433.22 371.041 432.999 369.197 432.999 366.917C433.01 360.961 434.595 357.964 437.052 357.964C437.881 357.964 438.616 358.31 439.214 359.002L433.629 372.45Z" fill="#fff"/>
    <path d="M463.198 353.802H458.747C458.695 355.403 456.847 358.131 454.086 358.131V362.537C456.459 362.537 458.002 361.461 458.464 360.59H458.663V380.032H463.198V353.802Z" fill="#fff"/>
    <path d="M482.521 353.802H478.07C478.018 355.403 476.17 358.131 473.409 358.131V362.537C475.782 362.537 477.325 361.461 477.787 360.59H477.986V380.032H482.521V353.802Z" fill="#fff"/>
    <path d="M263.682 439.319C269.089 439.319 272.353 434.298 272.364 425.653C272.374 417.072 269.068 412.154 263.682 412.154C258.286 412.154 255.011 417.059 255 425.653C254.979 434.273 258.265 439.306 263.682 439.319ZM263.682 434.721C262.811 434.721 262.044 434.337 261.414 433.581L267.052 420.069C267.482 421.478 267.724 423.348 267.724 425.653C267.734 431.698 266.139 434.721 263.682 434.721ZM260.26 431.186C259.85 429.777 259.63 427.933 259.63 425.653C259.64 419.698 261.225 416.701 263.682 416.701C264.511 416.701 265.246 417.046 265.845 417.738L260.26 431.186Z" fill="#fff"/>
    <path d="M289.356 439.319C294.763 439.319 298.028 434.298 298.038 425.653C298.049 417.072 294.742 412.154 289.356 412.154C283.96 412.154 280.685 417.059 280.675 425.653C280.654 434.273 283.939 439.306 289.356 439.319ZM289.356 434.721C288.485 434.721 287.719 434.337 287.089 433.581L292.726 420.069C293.157 421.478 293.398 423.348 293.398 425.653C293.409 431.698 291.813 434.721 289.356 434.721ZM285.934 431.186C285.525 429.777 285.304 427.933 285.304 425.653C285.315 419.698 286.9 416.701 289.356 416.701C290.186 416.701 290.921 417.046 291.519 417.738L285.934 431.186Z" fill="#fff"/>
    <path d="M315.503 412.538H311.052C311 414.139 309.152 416.867 306.391 416.867V421.273C308.763 421.273 310.307 420.197 310.769 419.326H310.968V438.768H315.503V412.538Z" fill="#fff"/>
    <path d="M334.354 439.319C339.76 439.319 343.025 434.298 343.036 425.653C343.046 417.072 339.739 412.154 334.354 412.154C328.958 412.154 325.682 417.059 325.672 425.653C325.651 434.273 328.937 439.306 334.354 439.319ZM334.354 434.721C333.483 434.721 332.716 434.337 332.086 433.581L337.724 420.069C338.154 421.478 338.396 423.348 338.396 425.653C338.406 431.698 336.81 434.721 334.354 434.721ZM330.932 431.186C330.522 429.777 330.302 427.933 330.302 425.653C330.312 419.698 331.897 416.701 334.354 416.701C335.183 416.701 335.918 417.046 336.516 417.738L330.932 431.186Z" fill="#fff"/>
    <path d="M360.501 412.538H356.05C355.997 414.139 354.149 416.867 351.388 416.867V421.273C353.761 421.273 355.304 420.197 355.766 419.326H355.966V438.768H360.501V412.538Z" fill="#fff"/>
    <path d="M379.351 439.319C384.758 439.319 388.023 434.298 388.033 425.653C388.044 417.072 384.737 412.154 379.351 412.154C373.955 412.154 370.68 417.059 370.669 425.653C370.648 434.273 373.934 439.306 379.351 439.319ZM379.351 434.721C378.48 434.721 377.714 434.337 377.084 433.581L382.721 420.069C383.152 421.478 383.393 423.348 383.393 425.653C383.404 431.698 381.808 434.721 379.351 434.721ZM375.929 431.186C375.52 429.777 375.299 427.933 375.299 425.653C375.31 419.698 376.895 416.701 379.351 416.701C380.181 416.701 380.916 417.046 381.514 417.738L375.929 431.186Z" fill="#fff"/>
    <path d="M405.498 412.538H401.047C400.995 414.139 399.147 416.867 396.386 416.867V421.273C398.758 421.273 400.302 420.197 400.764 419.326H400.963V438.768H405.498V412.538Z" fill="#fff"/>
    <path d="M424.821 412.538H420.37C420.318 414.139 418.47 416.867 415.709 416.867V421.273C418.081 421.273 419.625 420.197 420.087 419.326H420.286V438.768H424.821V412.538Z" fill="#fff"/>
    <path d="M443.672 439.319C449.078 439.319 452.343 434.298 452.354 425.653C452.364 417.072 449.057 412.154 443.672 412.154C438.276 412.154 435 417.059 434.99 425.653C434.969 434.273 438.255 439.306 443.672 439.319ZM443.672 434.721C442.801 434.721 442.034 434.337 441.404 433.581L447.042 420.069C447.472 421.478 447.714 423.348 447.714 425.653C447.724 431.698 446.128 434.721 443.672 434.721ZM440.25 431.186C439.84 429.777 439.62 427.933 439.62 425.653C439.63 419.698 441.215 416.701 443.672 416.701C444.501 416.701 445.236 417.046 445.835 417.738L440.25 431.186Z" fill="#fff"/>
    <path d="M469.819 412.538H465.368C465.315 414.139 463.467 416.867 460.706 416.867V421.273C463.079 421.273 464.622 420.197 465.084 419.326H465.284V438.768H469.819V412.538Z" fill="#fff"/>
    <path d="M489.142 412.538H484.691C484.638 414.139 482.79 416.867 480.029 416.867V421.273C482.402 421.273 483.945 420.197 484.407 419.326H484.607V438.768H489.142V412.538Z" fill="#fff"/>
    <path d="M264.154 471.274H259.703C259.651 472.875 257.803 475.603 255.042 475.603V480.009C257.415 480.009 258.958 478.933 259.42 478.062H259.619V497.504H264.154V471.274Z" fill="#fff"/>
    <path d="M283.005 498.055C288.412 498.055 291.676 493.034 291.687 484.389C291.697 475.808 288.391 470.89 283.005 470.89C277.609 470.89 274.334 475.795 274.323 484.389C274.302 493.009 277.588 498.042 283.005 498.055ZM283.005 493.457C282.134 493.457 281.367 493.073 280.737 492.317L286.375 478.805C286.805 480.214 287.047 482.084 287.047 484.389C287.057 490.435 285.462 493.457 283.005 493.457ZM279.583 489.922C279.173 488.513 278.953 486.669 278.953 484.389C278.963 478.434 280.549 475.437 283.005 475.437C283.834 475.437 284.569 475.783 285.168 476.474L279.583 489.922Z" fill="#fff"/>
    <path d="M308.679 498.055C314.086 498.055 317.351 493.034 317.361 484.389C317.372 475.808 314.065 470.89 308.679 470.89C303.283 470.89 300.008 475.795 299.998 484.389C299.977 493.009 303.262 498.042 308.679 498.055ZM308.679 493.457C307.808 493.457 307.042 493.073 306.412 492.317L312.049 478.805C312.48 480.214 312.721 482.084 312.721 484.389C312.732 490.435 311.136 493.457 308.679 493.457ZM305.257 489.922C304.848 488.513 304.627 486.669 304.627 484.389C304.638 478.434 306.223 475.437 308.679 475.437C309.509 475.437 310.244 475.783 310.842 476.474L305.257 489.922Z" fill="#fff"/>
    <path d="M334.826 471.274H330.375C330.323 472.875 328.475 475.603 325.714 475.603V480.009C328.087 480.009 329.63 478.933 330.092 478.062H330.291V497.504H334.826V471.274Z" fill="#fff"/>
    <path d="M354.149 471.274H349.698C349.646 472.875 347.798 475.603 345.037 475.603V480.009C347.41 480.009 348.953 478.933 349.415 478.062H349.614V497.504H354.149V471.274Z" fill="#fff"/>
    <path d="M373 498.055C378.407 498.055 381.671 493.034 381.682 484.389C381.692 475.808 378.386 470.89 373 470.89C367.604 470.89 364.329 475.795 364.318 484.389C364.297 493.009 367.583 498.042 373 498.055ZM373 493.457C372.129 493.457 371.362 493.073 370.732 492.317L376.37 478.805C376.8 480.214 377.042 482.084 377.042 484.389C377.052 490.435 375.457 493.457 373 493.457ZM369.578 489.922C369.168 488.513 368.948 486.669 368.948 484.389C368.958 478.434 370.543 475.437 373 475.437C373.829 475.437 374.564 475.783 375.163 476.474L369.578 489.922Z" fill="#fff"/>
    <path d="M398.674 498.055C404.081 498.055 407.346 493.034 407.356 484.389C407.367 475.808 404.06 470.89 398.674 470.89C393.278 470.89 390.003 475.795 389.993 484.389C389.972 493.009 393.257 498.042 398.674 498.055ZM398.674 493.457C397.803 493.457 397.037 493.073 396.407 492.317L402.044 478.805C402.475 480.214 402.716 482.084 402.716 484.389C402.727 490.435 401.131 493.457 398.674 493.457ZM395.252 489.922C394.843 488.513 394.622 486.669 394.622 484.389C394.633 478.434 396.218 475.437 398.674 475.437C399.504 475.437 400.239 475.783 400.837 476.474L395.252 489.922Z" fill="#fff"/>
    <path d="M424.821 471.274H420.37C420.318 472.875 418.47 475.603 415.709 475.603V480.009C418.081 480.009 419.625 478.933 420.087 478.062H420.286V497.504H424.821V471.274Z" fill="#fff"/>
    <path d="M444.144 471.274H439.693C439.641 472.875 437.793 475.603 435.032 475.603V480.009C437.405 480.009 438.948 478.933 439.41 478.062H439.609V497.504H444.144V471.274Z" fill="#fff"/>
    <path d="M463.467 471.274H459.016C458.964 472.875 457.116 475.603 454.355 475.603V480.009C456.728 480.009 458.271 478.933 458.733 478.062H458.932V497.504H463.467V471.274Z" fill="#fff"/>
    <path d="M482.318 498.055C487.725 498.055 490.989 493.034 491 484.389C491.01 475.808 487.704 470.89 482.318 470.89C476.922 470.89 473.647 475.795 473.636 484.389C473.615 493.009 476.901 498.042 482.318 498.055ZM482.318 493.457C481.447 493.457 480.68 493.073 480.05 492.317L485.688 478.805C486.118 480.214 486.36 482.084 486.36 484.389C486.37 490.435 484.775 493.457 482.318 493.457ZM478.896 489.922C478.486 488.513 478.266 486.669 478.266 484.389C478.276 478.434 479.861 475.437 482.318 475.437C483.147 475.437 483.882 475.783 484.481 476.474L478.896 489.922Z" fill="#fff"/>
    <path d="M264.154 530.011H259.703C259.651 531.612 257.803 534.34 255.042 534.34V538.745C257.415 538.745 258.958 537.67 259.42 536.799H259.619V556.241H264.154V530.011Z" fill="#fff"/>
    <path d="M283.477 530.011H279.026C278.974 531.612 277.126 534.34 274.365 534.34V538.745C276.738 538.745 278.281 537.67 278.743 536.799H278.942V556.241H283.477V530.011Z" fill="#fff"/>
    <path d="M302.328 556.791C307.735 556.791 311 551.771 311.01 543.126C311.021 534.544 307.714 529.626 302.328 529.626C296.932 529.626 293.657 534.532 293.646 543.126C293.625 551.745 296.911 556.778 302.328 556.791ZM302.328 552.193C301.457 552.193 300.69 551.809 300.061 551.053L305.698 537.541C306.128 538.95 306.37 540.82 306.37 543.126C306.38 549.171 304.785 552.193 302.328 552.193ZM298.906 548.658C298.496 547.25 298.276 545.405 298.276 543.126C298.286 537.17 299.872 534.173 302.328 534.173C303.157 534.173 303.892 534.519 304.491 535.211L298.906 548.658Z" fill="#fff"/>
    <path d="M328.475 530.011H324.024C323.971 531.612 322.124 534.34 319.363 534.34V538.745C321.735 538.745 323.278 537.67 323.74 536.799H323.94V556.241H328.475V530.011Z" fill="#fff"/>
    <path d="M347.326 556.791C352.732 556.791 355.997 551.771 356.008 543.126C356.018 534.544 352.711 529.626 347.326 529.626C341.93 529.626 338.654 534.532 338.644 543.126C338.623 551.745 341.909 556.778 347.326 556.791ZM347.326 552.193C346.454 552.193 345.688 551.809 345.058 551.053L350.696 537.541C351.126 538.95 351.367 540.82 351.367 543.126C351.378 549.171 349.782 552.193 347.326 552.193ZM343.903 548.658C343.494 547.25 343.273 545.405 343.273 543.126C343.284 537.17 344.869 534.173 347.326 534.173C348.155 534.173 348.89 534.519 349.488 535.211L343.903 548.658Z" fill="#fff"/>
    <path d="M373 556.791C378.407 556.791 381.671 551.771 381.682 543.126C381.692 534.544 378.386 529.626 373 529.626C367.604 529.626 364.329 534.532 364.318 543.126C364.297 551.745 367.583 556.778 373 556.791ZM373 552.193C372.129 552.193 371.362 551.809 370.732 551.053L376.37 537.541C376.8 538.95 377.042 540.82 377.042 543.126C377.052 549.171 375.457 552.193 373 552.193ZM369.578 548.658C369.168 547.25 368.948 545.405 368.948 543.126C368.958 537.17 370.543 534.173 373 534.173C373.829 534.173 374.564 534.519 375.163 535.211L369.578 548.658Z" fill="#fff"/>
    <path d="M399.147 530.011H394.696C394.643 531.612 392.796 534.34 390.035 534.34V538.745C392.407 538.745 393.95 537.67 394.412 536.799H394.612V556.241H399.147V530.011Z" fill="#fff"/>
    <path d="M417.998 556.791C423.404 556.791 426.669 551.771 426.679 543.126C426.69 534.544 423.383 529.626 417.998 529.626C412.602 529.626 409.326 534.532 409.316 543.126C409.295 551.745 412.581 556.778 417.998 556.791ZM417.998 552.193C417.126 552.193 416.36 551.809 415.73 551.053L421.367 537.541C421.798 538.95 422.039 540.82 422.039 543.126C422.05 549.171 420.454 552.193 417.998 552.193ZM414.575 548.658C414.166 547.25 413.945 545.405 413.945 543.126C413.956 537.17 415.541 534.173 417.998 534.173C418.827 534.173 419.562 534.519 420.16 535.211L414.575 548.658Z" fill="#fff"/>
    <path d="M444.144 530.011H439.693C439.641 531.612 437.793 534.34 435.032 534.34V538.745C437.405 538.745 438.948 537.67 439.41 536.799H439.609V556.241H444.144V530.011Z" fill="#fff"/>
    <path d="M463.467 530.011H459.016C458.964 531.612 457.116 534.34 454.355 534.34V538.745C456.728 538.745 458.271 537.67 458.733 536.799H458.932V556.241H463.467V530.011Z" fill="#fff"/>
    <path d="M482.318 556.791C487.725 556.791 490.989 551.771 491 543.126C491.01 534.544 487.704 529.626 482.318 529.626C476.922 529.626 473.647 534.532 473.636 543.126C473.615 551.745 476.901 556.778 482.318 556.791ZM482.318 552.193C481.447 552.193 480.68 551.809 480.05 551.053L485.688 537.541C486.118 538.95 486.36 540.82 486.36 543.126C486.37 549.171 484.775 552.193 482.318 552.193ZM478.896 548.658C478.486 547.25 478.266 545.405 478.266 543.126C478.276 537.17 479.861 534.173 482.318 534.173C483.147 534.173 483.882 534.519 484.481 535.211L478.896 548.658Z" fill="#fff"/>
    <path d="M264.154 588.747H259.703C259.651 590.348 257.803 593.076 255.042 593.076V597.482C257.415 597.482 258.958 596.406 259.42 595.535H259.619V614.977H264.154V588.747Z" fill="#fff"/>
    <path d="M283.477 588.747H279.026C278.974 590.348 277.126 593.076 274.365 593.076V597.482C276.738 597.482 278.281 596.406 278.743 595.535H278.942V614.977H283.477V588.747Z" fill="#fff"/>
    <path d="M302.801 588.747H298.349C298.297 590.348 296.449 593.076 293.688 593.076V597.482C296.061 597.482 297.604 596.406 298.066 595.535H298.265V614.977H302.801V588.747Z" fill="#fff"/>
    <path d="M321.651 615.527C327.058 615.527 330.323 610.507 330.333 601.862C330.344 593.281 327.037 588.363 321.651 588.363C316.255 588.363 312.98 593.268 312.969 601.862C312.948 610.481 316.234 615.515 321.651 615.527ZM321.651 610.93C320.78 610.93 320.014 610.545 319.384 609.79L325.021 596.278C325.452 597.687 325.693 599.556 325.693 601.862C325.703 607.907 324.108 610.93 321.651 610.93ZM318.229 607.395C317.819 605.986 317.599 604.142 317.599 601.862C317.609 595.906 319.195 592.909 321.651 592.909C322.481 592.909 323.215 593.255 323.814 593.947L318.229 607.395Z" fill="#fff"/>
    <path d="M347.326 615.527C352.732 615.527 355.997 610.507 356.008 601.862C356.018 593.281 352.711 588.363 347.326 588.363C341.93 588.363 338.654 593.268 338.644 601.862C338.623 610.481 341.909 615.515 347.326 615.527ZM347.326 610.93C346.454 610.93 345.688 610.545 345.058 609.79L350.696 596.278C351.126 597.687 351.367 599.556 351.367 601.862C351.378 607.907 349.782 610.93 347.326 610.93ZM343.903 607.395C343.494 605.986 343.273 604.142 343.273 601.862C343.284 595.906 344.869 592.909 347.326 592.909C348.155 592.909 348.89 593.255 349.488 593.947L343.903 607.395Z" fill="#fff"/>
    <path d="M373.472 588.747H369.021C368.969 590.348 367.121 593.076 364.36 593.076V597.482C366.733 597.482 368.276 596.406 368.738 595.535H368.937V614.977H373.472V588.747Z" fill="#fff"/>
    <path d="M392.796 588.747H388.344C388.292 590.348 386.444 593.076 383.683 593.076V597.482C386.056 597.482 387.599 596.406 388.061 595.535H388.26V614.977H392.796V588.747Z" fill="#fff"/>
    <path d="M411.646 615.527C417.053 615.527 420.318 610.507 420.328 601.862C420.339 593.281 417.032 588.363 411.646 588.363C406.25 588.363 402.975 593.268 402.964 601.862C402.943 610.481 406.229 615.515 411.646 615.527ZM411.646 610.93C410.775 610.93 410.008 610.545 409.379 609.79L415.016 596.278C415.446 597.687 415.688 599.556 415.688 601.862C415.698 607.907 414.103 610.93 411.646 610.93ZM408.224 607.395C407.814 605.986 407.594 604.142 407.594 601.862C407.604 595.906 409.19 592.909 411.646 592.909C412.476 592.909 413.21 593.255 413.809 593.947L408.224 607.395Z" fill="#fff"/>
    <path d="M437.321 615.527C442.727 615.527 445.992 610.507 446.002 601.862C446.013 593.281 442.706 588.363 437.321 588.363C431.925 588.363 428.649 593.268 428.639 601.862C428.618 610.481 431.904 615.515 437.321 615.527ZM437.321 610.93C436.449 610.93 435.683 610.545 435.053 609.79L440.69 596.278C441.121 597.687 441.362 599.556 441.362 601.862C441.373 607.907 439.777 610.93 437.321 610.93ZM433.898 607.395C433.489 605.986 433.268 604.142 433.268 601.862C433.279 595.906 434.864 592.909 437.321 592.909C438.15 592.909 438.885 593.255 439.483 593.947L433.898 607.395Z" fill="#fff"/>
    <path d="M463.467 588.747H459.016C458.964 590.348 457.116 593.076 454.355 593.076V597.482C456.728 597.482 458.271 596.406 458.733 595.535H458.932V614.977H463.467V588.747Z" fill="#fff"/>
    <path d="M482.318 615.527C487.725 615.527 490.989 610.507 491 601.862C491.01 593.281 487.704 588.363 482.318 588.363C476.922 588.363 473.647 593.268 473.636 601.862C473.615 610.481 476.901 615.515 482.318 615.527ZM482.318 610.93C481.447 610.93 480.68 610.545 480.05 609.79L485.688 596.278C486.118 597.687 486.36 599.556 486.36 601.862C486.37 607.907 484.775 610.93 482.318 610.93ZM478.896 607.395C478.486 605.986 478.266 604.142 478.266 601.862C478.276 595.906 479.861 592.909 482.318 592.909C483.147 592.909 483.882 593.255 484.481 593.947L478.896 607.395Z" fill="#fff"/>
    <path d="M264.154 647.483H259.703C259.651 649.084 257.803 651.812 255.042 651.812V656.218C257.415 656.218 258.958 655.142 259.42 654.271H259.619V673.713H264.154V647.483Z" fill="#fff"/>
    <path d="M283.005 674.264C288.412 674.264 291.676 669.243 291.687 660.598C291.697 652.017 288.391 647.099 283.005 647.099C277.609 647.099 274.334 652.004 274.323 660.598C274.302 669.218 277.588 674.251 283.005 674.264ZM283.005 669.666C282.134 669.666 281.367 669.282 280.737 668.526L286.375 655.014C286.805 656.423 287.047 658.293 287.047 660.598C287.057 666.643 285.462 669.666 283.005 669.666ZM279.583 666.131C279.173 664.722 278.953 662.878 278.953 660.598C278.963 654.643 280.549 651.646 283.005 651.646C283.834 651.646 284.569 651.991 285.168 652.683L279.583 666.131Z" fill="#fff"/>
    <path d="M309.152 647.483H304.701C304.648 649.084 302.801 651.812 300.04 651.812V656.218C302.412 656.218 303.955 655.142 304.417 654.271H304.617V673.713H309.152V647.483Z" fill="#fff"/>
    <path d="M328.475 647.483H324.024C323.971 649.084 322.124 651.812 319.363 651.812V656.218C321.735 656.218 323.278 655.142 323.74 654.271H323.94V673.713H328.475V647.483Z" fill="#fff"/>
    <path d="M347.326 674.264C352.732 674.264 355.997 669.243 356.008 660.598C356.018 652.017 352.711 647.099 347.326 647.099C341.93 647.099 338.654 652.004 338.644 660.598C338.623 669.218 341.909 674.251 347.326 674.264ZM347.326 669.666C346.454 669.666 345.688 669.282 345.058 668.526L350.696 655.014C351.126 656.423 351.367 658.293 351.367 660.598C351.378 666.643 349.782 669.666 347.326 669.666ZM343.903 666.131C343.494 664.722 343.273 662.878 343.273 660.598C343.284 654.643 344.869 651.646 347.326 651.646C348.155 651.646 348.89 651.991 349.488 652.683L343.903 666.131Z" fill="#fff"/>
    <path d="M373 674.264C378.407 674.264 381.671 669.243 381.682 660.598C381.692 652.017 378.386 647.099 373 647.099C367.604 647.099 364.329 652.004 364.318 660.598C364.297 669.218 367.583 674.251 373 674.264ZM373 669.666C372.129 669.666 371.362 669.282 370.732 668.526L376.37 655.014C376.8 656.423 377.042 658.293 377.042 660.598C377.052 666.643 375.457 669.666 373 669.666ZM369.578 666.131C369.168 664.722 368.948 662.878 368.948 660.598C368.958 654.643 370.543 651.646 373 651.646C373.829 651.646 374.564 651.991 375.163 652.683L369.578 666.131Z" fill="#fff"/>
    <path d="M399.147 647.483H394.696C394.643 649.084 392.796 651.812 390.035 651.812V656.218C392.407 656.218 393.95 655.142 394.412 654.271H394.612V673.713H399.147V647.483Z" fill="#fff"/>
    <path d="M417.998 674.264C423.404 674.264 426.669 669.243 426.679 660.598C426.69 652.017 423.383 647.099 417.998 647.099C412.602 647.099 409.326 652.004 409.316 660.598C409.295 669.218 412.581 674.251 417.998 674.264ZM417.998 669.666C417.126 669.666 416.36 669.282 415.73 668.526L421.367 655.014C421.798 656.423 422.039 658.293 422.039 660.598C422.05 666.643 420.454 669.666 417.998 669.666ZM414.575 666.131C414.166 664.722 413.945 662.878 413.945 660.598C413.956 654.643 415.541 651.646 417.998 651.646C418.827 651.646 419.562 651.991 420.16 652.683L414.575 666.131Z" fill="#fff"/>
    <path d="M444.144 647.483H439.693C439.641 649.084 437.793 651.812 435.032 651.812V656.218C437.405 656.218 438.948 655.142 439.41 654.271H439.609V673.713H444.144V647.483Z" fill="#fff"/>
    <path d="M462.995 674.264C468.401 674.264 471.666 669.243 471.677 660.598C471.687 652.017 468.38 647.099 462.995 647.099C457.599 647.099 454.324 652.004 454.313 660.598C454.292 669.218 457.578 674.251 462.995 674.264ZM462.995 669.666C462.124 669.666 461.357 669.282 460.727 668.526L466.365 655.014C466.795 656.423 467.037 658.293 467.037 660.598C467.047 666.643 465.452 669.666 462.995 669.666ZM459.573 666.131C459.163 664.722 458.943 662.878 458.943 660.598C458.953 654.643 460.538 651.646 462.995 651.646C463.824 651.646 464.559 651.991 465.158 652.683L459.573 666.131Z" fill="#fff"/>
    <path d="M489.142 647.483H484.691C484.638 649.084 482.79 651.812 480.029 651.812V656.218C482.402 656.218 483.945 655.142 484.407 654.271H484.607V673.713H489.142V647.483Z" fill="#fff"/>
  </g>
  <g opacity="0.05" transform="matrix(1, 0, 0, 1, -244.037811, 0.272054)">
    <path d="M263.682 28.1649C269.089 28.1649 272.353 23.1443 272.364 14.4992C272.374 5.91811 269.068 1 263.682 1C258.286 1 255.011 5.9053 255 14.4992C254.979 23.1187 258.265 28.1521 263.682 28.1649ZM263.682 23.5669C262.811 23.5669 262.044 23.1827 261.414 22.4271L267.052 8.91508C267.482 10.3239 267.724 12.1938 267.724 14.4992C267.734 20.5444 266.139 23.5669 263.682 23.5669ZM260.26 20.0321C259.85 18.6232 259.63 16.7789 259.63 14.4992C259.64 8.54366 261.225 5.54669 263.682 5.54669C264.511 5.54669 265.246 5.89249 265.845 6.5841L260.26 20.0321Z" fill="#fff"/>
    <path d="M289.829 1.38423H285.378C285.325 2.98517 283.477 5.71319 280.716 5.71319V10.119C283.089 10.119 284.632 9.04316 285.094 8.17224H285.294V27.6141H289.829V1.38423Z" fill="#fff"/>
    <path d="M309.152 1.38423H304.701C304.648 2.98517 302.801 5.71319 300.04 5.71319V10.119C302.412 10.119 303.955 9.04316 304.417 8.17224H304.617V27.6141H309.152V1.38423Z" fill="#fff"/>
    <path d="M328.003 28.1649C333.409 28.1649 336.674 23.1443 336.684 14.4992C336.695 5.91811 333.388 1 328.003 1C322.607 1 319.331 5.9053 319.321 14.4992C319.3 23.1187 322.586 28.1521 328.003 28.1649ZM328.003 23.5669C327.131 23.5669 326.365 23.1827 325.735 22.4271L331.372 8.91508C331.803 10.3239 332.044 12.1938 332.044 14.4992C332.055 20.5444 330.459 23.5669 328.003 23.5669ZM324.58 20.0321C324.171 18.6232 323.95 16.7789 323.95 14.4992C323.961 8.54366 325.546 5.54669 328.003 5.54669C328.832 5.54669 329.567 5.89249 330.165 6.5841L324.58 20.0321Z" fill="#fff"/>
    <path d="M353.677 28.1649C359.083 28.1649 362.348 23.1443 362.359 14.4992C362.369 5.91811 359.062 1 353.677 1C348.281 1 345.006 5.9053 344.995 14.4992C344.974 23.1187 348.26 28.1521 353.677 28.1649ZM353.677 23.5669C352.806 23.5669 352.039 23.1827 351.409 22.4271L357.047 8.91508C357.477 10.3239 357.719 12.1938 357.719 14.4992C357.729 20.5444 356.134 23.5669 353.677 23.5669ZM350.255 20.0321C349.845 18.6232 349.625 16.7789 349.625 14.4992C349.635 8.54366 351.22 5.54669 353.677 5.54669C354.506 5.54669 355.241 5.89249 355.84 6.5841L350.255 20.0321Z" fill="#fff"/>
    <path d="M379.824 1.38423H375.373C375.32 2.98517 373.472 5.71319 370.711 5.71319V10.119C373.084 10.119 374.627 9.04316 375.089 8.17224H375.289V27.6141H379.824V1.38423Z" fill="#fff"/>
    <path d="M399.147 1.38423H394.696C394.643 2.98517 392.796 5.71319 390.035 5.71319V10.119C392.407 10.119 393.95 9.04316 394.412 8.17224H394.612V27.6141H399.147V1.38423Z" fill="#fff"/>
    <path d="M417.998 28.1649C423.404 28.1649 426.669 23.1443 426.679 14.4992C426.69 5.91811 423.383 1 417.998 1C412.602 1 409.326 5.9053 409.316 14.4992C409.295 23.1187 412.581 28.1521 417.998 28.1649ZM417.998 23.5669C417.126 23.5669 416.36 23.1827 415.73 22.4271L421.367 8.91508C421.798 10.3239 422.039 12.1938 422.039 14.4992C422.05 20.5444 420.454 23.5669 417.998 23.5669ZM414.575 20.0321C414.166 18.6232 413.945 16.7789 413.945 14.4992C413.956 8.54366 415.541 5.54669 417.998 5.54669C418.827 5.54669 419.562 5.89249 420.16 6.5841L414.575 20.0321Z" fill="#fff"/>
    <path d="M443.672 28.1649C449.078 28.1649 452.343 23.1443 452.354 14.4992C452.364 5.91811 449.057 1 443.672 1C438.276 1 435 5.9053 434.99 14.4992C434.969 23.1187 438.255 28.1521 443.672 28.1649ZM443.672 23.5669C442.801 23.5669 442.034 23.1827 441.404 22.4271L447.042 8.91508C447.472 10.3239 447.714 12.1938 447.714 14.4992C447.724 20.5444 446.128 23.5669 443.672 23.5669ZM440.25 20.0321C439.84 18.6232 439.62 16.7789 439.62 14.4992C439.63 8.54366 441.215 5.54669 443.672 5.54669C444.501 5.54669 445.236 5.89249 445.835 6.5841L440.25 20.0321Z" fill="#fff"/>
    <path d="M469.819 1.38423H465.368C465.315 2.98517 463.467 5.71319 460.706 5.71319V10.119C463.079 10.119 464.622 9.04316 465.084 8.17224H465.284V27.6141H469.819V1.38423Z" fill="#fff"/>
    <path d="M489.142 1.38423H484.691C484.638 2.98517 482.79 5.71319 480.029 5.71319V10.119C482.402 10.119 483.945 9.04316 484.407 8.17224H484.607V27.6141H489.142V1.38423Z" fill="#fff"/>
    <path d="M264.154 60.1205H259.703C259.651 61.7214 257.803 64.4495 255.042 64.4495V68.8553C257.415 68.8553 258.958 67.7794 259.42 66.9085H259.619V86.3504H264.154V60.1205Z" fill="#fff"/>
    <path d="M283.005 86.9011C288.412 86.9011 291.676 81.8806 291.687 73.2355C291.697 64.6544 288.391 59.7363 283.005 59.7363C277.609 59.7363 274.334 64.6416 274.323 73.2355C274.302 81.8549 277.588 86.8883 283.005 86.9011ZM283.005 82.3032C282.134 82.3032 281.367 81.919 280.737 81.1633L286.375 67.6513C286.805 69.0602 287.047 70.9301 287.047 73.2355C287.057 79.2806 285.462 82.3032 283.005 82.3032ZM279.583 78.7683C279.173 77.3595 278.953 75.5152 278.953 73.2355C278.963 67.2799 280.549 64.283 283.005 64.283C283.834 64.283 284.569 64.6288 285.168 65.3204L279.583 78.7683Z" fill="#fff"/>
    <path d="M308.679 86.9011C314.086 86.9011 317.351 81.8806 317.361 73.2355C317.372 64.6544 314.065 59.7363 308.679 59.7363C303.283 59.7363 300.008 64.6416 299.998 73.2355C299.977 81.8549 303.262 86.8883 308.679 86.9011ZM308.679 82.3032C307.808 82.3032 307.042 81.919 306.412 81.1633L312.049 67.6513C312.48 69.0602 312.721 70.9301 312.721 73.2355C312.732 79.2806 311.136 82.3032 308.679 82.3032ZM305.257 78.7683C304.848 77.3595 304.627 75.5152 304.627 73.2355C304.638 67.2799 306.223 64.283 308.679 64.283C309.509 64.283 310.244 64.6288 310.842 65.3204L305.257 78.7683Z" fill="#fff"/>
    <path d="M334.826 60.1205H330.375C330.323 61.7214 328.475 64.4495 325.714 64.4495V68.8553C328.087 68.8553 329.63 67.7794 330.092 66.9085H330.291V86.3504H334.826V60.1205Z" fill="#fff"/>
    <path d="M353.677 86.9011C359.083 86.9011 362.348 81.8806 362.359 73.2355C362.369 64.6544 359.062 59.7363 353.677 59.7363C348.281 59.7363 345.006 64.6416 344.995 73.2355C344.974 81.8549 348.26 86.8883 353.677 86.9011ZM353.677 82.3032C352.806 82.3032 352.039 81.919 351.409 81.1633L357.047 67.6513C357.477 69.0602 357.719 70.9301 357.719 73.2355C357.729 79.2806 356.134 82.3032 353.677 82.3032ZM350.255 78.7683C349.845 77.3595 349.625 75.5152 349.625 73.2355C349.635 67.2799 351.22 64.283 353.677 64.283C354.506 64.283 355.241 64.6288 355.84 65.3204L350.255 78.7683Z" fill="#fff"/>
    <path d="M379.351 86.9011C384.758 86.9011 388.023 81.8806 388.033 73.2355C388.044 64.6544 384.737 59.7363 379.351 59.7363C373.955 59.7363 370.68 64.6416 370.669 73.2355C370.648 81.8549 373.934 86.8883 379.351 86.9011ZM379.351 82.3032C378.48 82.3032 377.714 81.919 377.084 81.1633L382.721 67.6513C383.152 69.0602 383.393 70.9301 383.393 73.2355C383.404 79.2806 381.808 82.3032 379.351 82.3032ZM375.929 78.7683C375.52 77.3595 375.299 75.5152 375.299 73.2355C375.31 67.2799 376.895 64.283 379.351 64.283C380.181 64.283 380.916 64.6288 381.514 65.3204L375.929 78.7683Z" fill="#fff"/>
    <path d="M405.498 60.1205H401.047C400.995 61.7214 399.147 64.4495 396.386 64.4495V68.8553C398.758 68.8553 400.302 67.7794 400.764 66.9085H400.963V86.3504H405.498V60.1205Z" fill="#fff"/>
    <path d="M424.821 60.1205H420.37C420.318 61.7214 418.47 64.4495 415.709 64.4495V68.8553C418.081 68.8553 419.625 67.7794 420.087 66.9085H420.286V86.3504H424.821V60.1205Z" fill="#fff"/>
    <path d="M443.672 86.9011C449.078 86.9011 452.343 81.8806 452.354 73.2355C452.364 64.6544 449.057 59.7363 443.672 59.7363C438.276 59.7363 435 64.6416 434.99 73.2355C434.969 81.8549 438.255 86.8883 443.672 86.9011ZM443.672 82.3032C442.801 82.3032 442.034 81.919 441.404 81.1633L447.042 67.6513C447.472 69.0602 447.714 70.9301 447.714 73.2355C447.724 79.2806 446.128 82.3032 443.672 82.3032ZM440.25 78.7683C439.84 77.3595 439.62 75.5152 439.62 73.2355C439.63 67.2799 441.215 64.283 443.672 64.283C444.501 64.283 445.236 64.6288 445.835 65.3204L440.25 78.7683Z" fill="#fff"/>
    <path d="M469.819 60.1205H465.368C465.315 61.7214 463.467 64.4495 460.706 64.4495V68.8553C463.079 68.8553 464.622 67.7794 465.084 66.9085H465.284V86.3504H469.819V60.1205Z" fill="#fff"/>
    <path d="M489.142 60.1205H484.691C484.638 61.7214 482.79 64.4495 480.029 64.4495V68.8553C482.402 68.8553 483.945 67.7794 484.407 66.9085H484.607V86.3504H489.142V60.1205Z" fill="#fff"/>
    <path d="M264.154 118.857H259.703C259.651 120.458 257.803 123.186 255.042 123.186V127.592C257.415 127.592 258.958 126.516 259.42 125.645H259.619V145.087H264.154V118.857Z" fill="#fff"/>
    <path d="M283.477 118.857H279.026C278.974 120.458 277.126 123.186 274.365 123.186V127.592C276.738 127.592 278.281 126.516 278.743 125.645H278.942V145.087H283.477V118.857Z" fill="#fff"/>
    <path d="M302.328 145.637C307.735 145.637 311 140.617 311.01 131.972C311.021 123.391 307.714 118.473 302.328 118.473C296.932 118.473 293.657 123.378 293.646 131.972C293.625 140.591 296.911 145.625 302.328 145.637ZM302.328 141.039C301.457 141.039 300.69 140.655 300.061 139.9L305.698 126.388C306.128 127.796 306.37 129.666 306.37 131.972C306.38 138.017 304.785 141.039 302.328 141.039ZM298.906 137.505C298.496 136.096 298.276 134.251 298.276 131.972C298.286 126.016 299.872 123.019 302.328 123.019C303.157 123.019 303.892 123.365 304.491 124.057L298.906 137.505Z" fill="#fff"/>
    <path d="M328.475 118.857H324.024C323.971 120.458 322.124 123.186 319.363 123.186V127.592C321.735 127.592 323.278 126.516 323.74 125.645H323.94V145.087H328.475V118.857Z" fill="#fff"/>
    <path d="M347.798 118.857H343.347C343.294 120.458 341.447 123.186 338.686 123.186V127.592C341.058 127.592 342.601 126.516 343.063 125.645H343.263V145.087H347.798V118.857Z" fill="#fff"/>
    <path d="M366.649 145.637C372.055 145.637 375.32 140.617 375.331 131.972C375.341 123.391 372.034 118.473 366.649 118.473C361.253 118.473 357.977 123.378 357.967 131.972C357.946 140.591 361.232 145.625 366.649 145.637ZM366.649 141.039C365.777 141.039 365.011 140.655 364.381 139.9L370.019 126.388C370.449 127.796 370.69 129.666 370.69 131.972C370.701 138.017 369.105 141.039 366.649 141.039ZM363.226 137.505C362.817 136.096 362.596 134.251 362.596 131.972C362.607 126.016 364.192 123.019 366.649 123.019C367.478 123.019 368.213 123.365 368.811 124.057L363.226 137.505Z" fill="#fff"/>
    <path d="M392.796 118.857H388.344C388.292 120.458 386.444 123.186 383.683 123.186V127.592C386.056 127.592 387.599 126.516 388.061 125.645H388.26V145.087H392.796V118.857Z" fill="#fff"/>
    <path d="M412.119 118.857H407.667C407.615 120.458 405.767 123.186 403.006 123.186V127.592C405.379 127.592 406.922 126.516 407.384 125.645H407.583V145.087H412.119V118.857Z" fill="#fff"/>
    <path d="M431.442 118.857H426.99C426.938 120.458 425.09 123.186 422.329 123.186V127.592C424.702 127.592 426.245 126.516 426.707 125.645H426.906V145.087H431.442V118.857Z" fill="#fff"/>
    <path d="M450.292 145.637C455.699 145.637 458.964 140.617 458.974 131.972C458.985 123.391 455.678 118.473 450.292 118.473C444.896 118.473 441.621 123.378 441.61 131.972C441.589 140.591 444.875 145.625 450.292 145.637ZM450.292 141.039C449.421 141.039 448.655 140.655 448.025 139.9L453.662 126.388C454.093 127.796 454.334 129.666 454.334 131.972C454.345 138.017 452.749 141.039 450.292 141.039ZM446.87 137.505C446.461 136.096 446.24 134.251 446.24 131.972C446.251 126.016 447.836 123.019 450.292 123.019C451.122 123.019 451.857 123.365 452.455 124.057L446.87 137.505Z" fill="#fff"/>
    <path d="M475.967 145.637C481.373 145.637 484.638 140.617 484.649 131.972C484.659 123.391 481.352 118.473 475.967 118.473C470.571 118.473 467.295 123.378 467.285 131.972C467.264 140.591 470.55 145.625 475.967 145.637ZM475.967 141.039C475.095 141.039 474.329 140.655 473.699 139.9L479.337 126.388C479.767 127.796 480.008 129.666 480.008 131.972C480.019 138.017 478.423 141.039 475.967 141.039ZM472.544 137.505C472.135 136.096 471.914 134.251 471.914 131.972C471.925 126.016 473.51 123.019 475.967 123.019C476.796 123.019 477.531 123.365 478.129 124.057L472.544 137.505Z" fill="#fff"/>
    <path d="M264.154 177.593H259.703C259.651 179.194 257.803 181.922 255.042 181.922V186.328C257.415 186.328 258.958 185.252 259.42 184.381H259.619V203.823H264.154V177.593Z" fill="#fff"/>
    <path d="M283.477 177.593H279.026C278.974 179.194 277.126 181.922 274.365 181.922V186.328C276.738 186.328 278.281 185.252 278.743 184.381H278.942V203.823H283.477V177.593Z" fill="#fff"/>
    <path d="M302.801 177.593H298.349C298.297 179.194 296.449 181.922 293.688 181.922V186.328C296.061 186.328 297.604 185.252 298.066 184.381H298.265V203.823H302.801V177.593Z" fill="#fff"/>
    <path d="M321.651 204.374C327.058 204.374 330.323 199.353 330.333 190.708C330.344 182.127 327.037 177.209 321.651 177.209C316.255 177.209 312.98 182.114 312.969 190.708C312.948 199.327 316.234 204.361 321.651 204.374ZM321.651 199.776C320.78 199.776 320.014 199.392 319.384 198.636L325.021 185.124C325.452 186.533 325.693 188.403 325.693 190.708C325.703 196.753 324.108 199.776 321.651 199.776ZM318.229 196.241C317.819 194.832 317.599 192.988 317.599 190.708C317.609 184.752 319.195 181.755 321.651 181.755C322.481 181.755 323.215 182.101 323.814 182.793L318.229 196.241Z" fill="#fff"/>
    <path d="M347.798 177.593H343.347C343.294 179.194 341.447 181.922 338.686 181.922V186.328C341.058 186.328 342.601 185.252 343.063 184.381H343.263V203.823H347.798V177.593Z" fill="#fff"/>
    <path d="M366.649 204.374C372.055 204.374 375.32 199.353 375.331 190.708C375.341 182.127 372.034 177.209 366.649 177.209C361.253 177.209 357.977 182.114 357.967 190.708C357.946 199.327 361.232 204.361 366.649 204.374ZM366.649 199.776C365.777 199.776 365.011 199.392 364.381 198.636L370.019 185.124C370.449 186.533 370.69 188.403 370.69 190.708C370.701 196.753 369.105 199.776 366.649 199.776ZM363.226 196.241C362.817 194.832 362.596 192.988 362.596 190.708C362.607 184.752 364.192 181.755 366.649 181.755C367.478 181.755 368.213 182.101 368.811 182.793L363.226 196.241Z" fill="#fff"/>
    <path d="M392.323 204.374C397.73 204.374 400.995 199.353 401.005 190.708C401.016 182.127 397.709 177.209 392.323 177.209C386.927 177.209 383.652 182.114 383.641 190.708C383.62 199.327 386.906 204.361 392.323 204.374ZM392.323 199.776C391.452 199.776 390.685 199.392 390.056 198.636L395.693 185.124C396.123 186.533 396.365 188.403 396.365 190.708C396.375 196.753 394.78 199.776 392.323 199.776ZM388.901 196.241C388.491 194.832 388.271 192.988 388.271 190.708C388.281 184.752 389.867 181.755 392.323 181.755C393.152 181.755 393.887 182.101 394.486 182.793L388.901 196.241Z" fill="#fff"/>
    <path d="M417.998 204.374C423.404 204.374 426.669 199.353 426.679 190.708C426.69 182.127 423.383 177.209 417.998 177.209C412.602 177.209 409.326 182.114 409.316 190.708C409.295 199.327 412.581 204.361 417.998 204.374ZM417.998 199.776C417.126 199.776 416.36 199.392 415.73 198.636L421.367 185.124C421.798 186.533 422.039 188.403 422.039 190.708C422.05 196.753 420.454 199.776 417.998 199.776ZM414.575 196.241C414.166 194.832 413.945 192.988 413.945 190.708C413.956 184.752 415.541 181.755 417.998 181.755C418.827 181.755 419.562 182.101 420.16 182.793L414.575 196.241Z" fill="#fff"/>
    <path d="M444.144 177.593H439.693C439.641 179.194 437.793 181.922 435.032 181.922V186.328C437.405 186.328 438.948 185.252 439.41 184.381H439.609V203.823H444.144V177.593Z" fill="#fff"/>
    <path d="M463.467 177.593H459.016C458.964 179.194 457.116 181.922 454.355 181.922V186.328C456.728 186.328 458.271 185.252 458.733 184.381H458.932V203.823H463.467V177.593Z" fill="#fff"/>
    <path d="M482.318 204.374C487.725 204.374 490.989 199.353 491 190.708C491.01 182.127 487.704 177.209 482.318 177.209C476.922 177.209 473.647 182.114 473.636 190.708C473.615 199.327 476.901 204.361 482.318 204.374ZM482.318 199.776C481.447 199.776 480.68 199.392 480.05 198.636L485.688 185.124C486.118 186.533 486.36 188.403 486.36 190.708C486.37 196.753 484.775 199.776 482.318 199.776ZM478.896 196.241C478.486 194.832 478.266 192.988 478.266 190.708C478.276 184.752 479.861 181.755 482.318 181.755C483.147 181.755 483.882 182.101 484.481 182.793L478.896 196.241Z" fill="#fff"/>
    <path d="M263.682 263.11C269.089 263.11 272.353 258.089 272.364 249.444C272.374 240.863 269.068 235.945 263.682 235.945C258.286 235.945 255.011 240.85 255 249.444C254.979 258.064 258.265 263.097 263.682 263.11ZM263.682 258.512C262.811 258.512 262.044 258.128 261.414 257.372L267.052 243.86C267.482 245.269 267.724 247.139 267.724 249.444C267.734 255.489 266.139 258.512 263.682 258.512ZM260.26 254.977C259.85 253.568 259.63 251.724 259.63 249.444C259.64 243.489 261.225 240.492 263.682 240.492C264.511 240.492 265.246 240.838 265.845 241.529L260.26 254.977Z" fill="#fff"/>
    <path d="M289.829 236.329H285.378C285.325 237.93 283.477 240.658 280.716 240.658V245.064C283.089 245.064 284.632 243.988 285.094 243.117H285.294V262.559H289.829V236.329Z" fill="#fff"/>
    <path d="M308.679 263.11C314.086 263.11 317.351 258.089 317.361 249.444C317.372 240.863 314.065 235.945 308.679 235.945C303.283 235.945 300.008 240.85 299.998 249.444C299.977 258.064 303.262 263.097 308.679 263.11ZM308.679 258.512C307.808 258.512 307.042 258.128 306.412 257.372L312.049 243.86C312.48 245.269 312.721 247.139 312.721 249.444C312.732 255.489 311.136 258.512 308.679 258.512ZM305.257 254.977C304.848 253.568 304.627 251.724 304.627 249.444C304.638 243.489 306.223 240.492 308.679 240.492C309.509 240.492 310.244 240.838 310.842 241.529L305.257 254.977Z" fill="#fff"/>
    <path d="M334.826 236.329H330.375C330.323 237.93 328.475 240.658 325.714 240.658V245.064C328.087 245.064 329.63 243.988 330.092 243.117H330.291V262.559H334.826V236.329Z" fill="#fff"/>
    <path d="M353.677 263.11C359.083 263.11 362.348 258.089 362.359 249.444C362.369 240.863 359.062 235.945 353.677 235.945C348.281 235.945 345.006 240.85 344.995 249.444C344.974 258.064 348.26 263.097 353.677 263.11ZM353.677 258.512C352.806 258.512 352.039 258.128 351.409 257.372L357.047 243.86C357.477 245.269 357.719 247.139 357.719 249.444C357.729 255.489 356.134 258.512 353.677 258.512ZM350.255 254.977C349.845 253.568 349.625 251.724 349.625 249.444C349.635 243.489 351.22 240.492 353.677 240.492C354.506 240.492 355.241 240.838 355.84 241.529L350.255 254.977Z" fill="#fff"/>
    <path d="M379.824 236.329H375.373C375.32 237.93 373.472 240.658 370.711 240.658V245.064C373.084 245.064 374.627 243.988 375.089 243.117H375.289V262.559H379.824V236.329Z" fill="#fff"/>
    <path d="M399.147 236.329H394.696C394.643 237.93 392.796 240.658 390.035 240.658V245.064C392.407 245.064 393.95 243.988 394.412 243.117H394.612V262.559H399.147V236.329Z" fill="#fff"/>
    <path d="M417.998 263.11C423.404 263.11 426.669 258.089 426.679 249.444C426.69 240.863 423.383 235.945 417.998 235.945C412.602 235.945 409.326 240.85 409.316 249.444C409.295 258.064 412.581 263.097 417.998 263.11ZM417.998 258.512C417.126 258.512 416.36 258.128 415.73 257.372L421.367 243.86C421.798 245.269 422.039 247.139 422.039 249.444C422.05 255.489 420.454 258.512 417.998 258.512ZM414.575 254.977C414.166 253.568 413.945 251.724 413.945 249.444C413.956 243.489 415.541 240.492 417.998 240.492C418.827 240.492 419.562 240.838 420.16 241.529L414.575 254.977Z" fill="#fff"/>
    <path d="M444.144 236.329H439.693C439.641 237.93 437.793 240.658 435.032 240.658V245.064C437.405 245.064 438.948 243.988 439.41 243.117H439.609V262.559H444.144V236.329Z" fill="#fff"/>
    <path d="M463.467 236.329H459.016C458.964 237.93 457.116 240.658 454.355 240.658V245.064C456.728 245.064 458.271 243.988 458.733 243.117H458.932V262.559H463.467V236.329Z" fill="#fff"/>
    <path d="M482.79 236.329H478.339C478.287 237.93 476.439 240.658 473.678 240.658V245.064C476.051 245.064 477.594 243.988 478.056 243.117H478.255V262.559H482.79V236.329Z" fill="#fff"/>
    <path d="M263.682 321.846C269.089 321.846 272.353 316.826 272.364 308.181C272.374 299.599 269.068 294.681 263.682 294.681C258.286 294.681 255.011 299.587 255 308.181C254.979 316.8 258.265 321.833 263.682 321.846ZM263.682 317.248C262.811 317.248 262.044 316.864 261.414 316.108L267.052 302.596C267.482 304.005 267.724 305.875 267.724 308.181C267.734 314.226 266.139 317.248 263.682 317.248ZM260.26 313.713C259.85 312.305 259.63 310.46 259.63 308.181C259.64 302.225 261.225 299.228 263.682 299.228C264.511 299.228 265.246 299.574 265.845 300.265L260.26 313.713Z" fill="#fff"/>
    <path d="M289.356 321.846C294.763 321.846 298.028 316.826 298.038 308.181C298.049 299.599 294.742 294.681 289.356 294.681C283.96 294.681 280.685 299.587 280.675 308.181C280.654 316.8 283.939 321.833 289.356 321.846ZM289.356 317.248C288.485 317.248 287.719 316.864 287.089 316.108L292.726 302.596C293.157 304.005 293.398 305.875 293.398 308.181C293.409 314.226 291.813 317.248 289.356 317.248ZM285.934 313.713C285.525 312.305 285.304 310.46 285.304 308.181C285.315 302.225 286.9 299.228 289.356 299.228C290.186 299.228 290.921 299.574 291.519 300.265L285.934 313.713Z" fill="#fff"/>
    <path d="M315.503 295.066H311.052C311 296.666 309.152 299.395 306.391 299.395V303.8C308.763 303.8 310.307 302.724 310.769 301.854H310.968V321.295H315.503V295.066Z" fill="#fff"/>
    <path d="M334.826 295.066H330.375C330.323 296.666 328.475 299.395 325.714 299.395V303.8C328.087 303.8 329.63 302.724 330.092 301.854H330.291V321.295H334.826V295.066Z" fill="#fff"/>
    <path d="M353.677 321.846C359.083 321.846 362.348 316.826 362.359 308.181C362.369 299.599 359.062 294.681 353.677 294.681C348.281 294.681 345.006 299.587 344.995 308.181C344.974 316.8 348.26 321.833 353.677 321.846ZM353.677 317.248C352.806 317.248 352.039 316.864 351.409 316.108L357.047 302.596C357.477 304.005 357.719 305.875 357.719 308.181C357.729 314.226 356.134 317.248 353.677 317.248ZM350.255 313.713C349.845 312.305 349.625 310.46 349.625 308.181C349.635 302.225 351.22 299.228 353.677 299.228C354.506 299.228 355.241 299.574 355.84 300.265L350.255 313.713Z" fill="#fff"/>
    <path d="M379.351 321.846C384.758 321.846 388.023 316.826 388.033 308.181C388.044 299.599 384.737 294.681 379.351 294.681C373.955 294.681 370.68 299.587 370.669 308.181C370.648 316.8 373.934 321.833 379.351 321.846ZM379.351 317.248C378.48 317.248 377.714 316.864 377.084 316.108L382.721 302.596C383.152 304.005 383.393 305.875 383.393 308.181C383.404 314.226 381.808 317.248 379.351 317.248ZM375.929 313.713C375.52 312.305 375.299 310.46 375.299 308.181C375.31 302.225 376.895 299.228 379.351 299.228C380.181 299.228 380.916 299.574 381.514 300.265L375.929 313.713Z" fill="#fff"/>
    <path d="M405.498 295.066H401.047C400.995 296.666 399.147 299.395 396.386 299.395V303.8C398.758 303.8 400.302 302.724 400.764 301.854H400.963V321.295H405.498V295.066Z" fill="#fff"/>
    <path d="M424.349 321.846C429.755 321.846 433.02 316.826 433.031 308.181C433.041 299.599 429.734 294.681 424.349 294.681C418.953 294.681 415.677 299.587 415.667 308.181C415.646 316.8 418.932 321.833 424.349 321.846ZM424.349 317.248C423.478 317.248 422.711 316.864 422.081 316.108L427.719 302.596C428.149 304.005 428.391 305.875 428.391 308.181C428.401 314.226 426.805 317.248 424.349 317.248ZM420.926 313.713C420.517 312.305 420.297 310.46 420.297 308.181C420.307 302.225 421.892 299.228 424.349 299.228C425.178 299.228 425.913 299.574 426.511 300.265L420.926 313.713Z" fill="#fff"/>
    <path d="M450.023 321.846C455.43 321.846 458.695 316.826 458.705 308.181C458.716 299.599 455.409 294.681 450.023 294.681C444.627 294.681 441.352 299.587 441.341 308.181C441.32 316.8 444.606 321.833 450.023 321.846ZM450.023 317.248C449.152 317.248 448.386 316.864 447.756 316.108L453.393 302.596C453.824 304.005 454.065 305.875 454.065 308.181C454.075 314.226 452.48 317.248 450.023 317.248ZM446.601 313.713C446.191 312.305 445.971 310.46 445.971 308.181C445.981 302.225 447.567 299.228 450.023 299.228C450.853 299.228 451.587 299.574 452.186 300.265L446.601 313.713Z" fill="#fff"/>
    <path d="M475.698 321.846C481.104 321.846 484.369 316.826 484.38 308.181C484.39 299.599 481.083 294.681 475.698 294.681C470.302 294.681 467.026 299.587 467.016 308.181C466.995 316.8 470.281 321.833 475.698 321.846ZM475.698 317.248C474.826 317.248 474.06 316.864 473.43 316.108L479.068 302.596C479.498 304.005 479.739 305.875 479.739 308.181C479.75 314.226 478.154 317.248 475.698 317.248ZM472.275 313.713C471.866 312.305 471.645 310.46 471.645 308.181C471.656 302.225 473.241 299.228 475.698 299.228C476.527 299.228 477.262 299.574 477.86 300.265L472.275 313.713Z" fill="#fff"/>
    <path d="M263.682 380.582C269.089 380.582 272.353 375.562 272.364 366.917C272.374 358.336 269.068 353.418 263.682 353.418C258.286 353.418 255.011 358.323 255 366.917C254.979 375.536 258.265 380.57 263.682 380.582ZM263.682 375.985C262.811 375.985 262.044 375.6 261.414 374.845L267.052 361.333C267.482 362.742 267.724 364.611 267.724 366.917C267.734 372.962 266.139 375.985 263.682 375.985ZM260.26 372.45C259.85 371.041 259.63 369.197 259.63 366.917C259.64 360.961 261.225 357.964 263.682 357.964C264.511 357.964 265.246 358.31 265.845 359.002L260.26 372.45Z" fill="#fff"/>
    <path d="M289.829 353.802H285.378C285.325 355.403 283.477 358.131 280.716 358.131V362.537C283.089 362.537 284.632 361.461 285.094 360.59H285.294V380.032H289.829V353.802Z" fill="#fff"/>
    <path d="M308.679 380.582C314.086 380.582 317.351 375.562 317.361 366.917C317.372 358.336 314.065 353.418 308.679 353.418C303.283 353.418 300.008 358.323 299.998 366.917C299.977 375.536 303.262 380.57 308.679 380.582ZM308.679 375.985C307.808 375.985 307.042 375.6 306.412 374.845L312.049 361.333C312.48 362.742 312.721 364.611 312.721 366.917C312.732 372.962 311.136 375.985 308.679 375.985ZM305.257 372.45C304.848 371.041 304.627 369.197 304.627 366.917C304.638 360.961 306.223 357.964 308.679 357.964C309.509 357.964 310.244 358.31 310.842 359.002L305.257 372.45Z" fill="#fff"/>
    <path d="M334.354 380.582C339.76 380.582 343.025 375.562 343.036 366.917C343.046 358.336 339.739 353.418 334.354 353.418C328.958 353.418 325.682 358.323 325.672 366.917C325.651 375.536 328.937 380.57 334.354 380.582ZM334.354 375.985C333.483 375.985 332.716 375.6 332.086 374.845L337.724 361.333C338.154 362.742 338.396 364.611 338.396 366.917C338.406 372.962 336.81 375.985 334.354 375.985ZM330.932 372.45C330.522 371.041 330.302 369.197 330.302 366.917C330.312 360.961 331.897 357.964 334.354 357.964C335.183 357.964 335.918 358.31 336.516 359.002L330.932 372.45Z" fill="#fff"/>
    <path d="M360.028 380.582C365.435 380.582 368.7 375.562 368.71 366.917C368.721 358.336 365.414 353.418 360.028 353.418C354.632 353.418 351.357 358.323 351.346 366.917C351.325 375.536 354.611 380.57 360.028 380.582ZM360.028 375.985C359.157 375.985 358.391 375.6 357.761 374.845L363.398 361.333C363.829 362.742 364.07 364.611 364.07 366.917C364.081 372.962 362.485 375.985 360.028 375.985ZM356.606 372.45C356.196 371.041 355.976 369.197 355.976 366.917C355.987 360.961 357.572 357.964 360.028 357.964C360.858 357.964 361.593 358.31 362.191 359.002L356.606 372.45Z" fill="#fff"/>
    <path d="M385.703 380.582C391.109 380.582 394.374 375.562 394.385 366.917C394.395 358.336 391.088 353.418 385.703 353.418C380.307 353.418 377.031 358.323 377.021 366.917C377 375.536 380.286 380.57 385.703 380.582ZM385.703 375.985C384.831 375.985 384.065 375.6 383.435 374.845L389.073 361.333C389.503 362.742 389.744 364.611 389.744 366.917C389.755 372.962 388.159 375.985 385.703 375.985ZM382.28 372.45C381.871 371.041 381.65 369.197 381.65 366.917C381.661 360.961 383.246 357.964 385.703 357.964C386.532 357.964 387.267 358.31 387.865 359.002L382.28 372.45Z" fill="#fff"/>
    <path d="M411.377 380.582C416.784 380.582 420.049 375.562 420.059 366.917C420.07 358.336 416.763 353.418 411.377 353.418C405.981 353.418 402.706 358.323 402.695 366.917C402.674 375.536 405.96 380.57 411.377 380.582ZM411.377 375.985C410.506 375.985 409.739 375.6 409.11 374.845L414.747 361.333C415.177 362.742 415.419 364.611 415.419 366.917C415.429 372.962 413.834 375.985 411.377 375.985ZM407.955 372.45C407.545 371.041 407.325 369.197 407.325 366.917C407.335 360.961 408.921 357.964 411.377 357.964C412.206 357.964 412.941 358.31 413.54 359.002L407.955 372.45Z" fill="#fff"/>
    <path d="M437.052 380.582C442.458 380.582 445.723 375.562 445.733 366.917C445.744 358.336 442.437 353.418 437.052 353.418C431.656 353.418 428.38 358.323 428.37 366.917C428.349 375.536 431.635 380.57 437.052 380.582ZM437.052 375.985C436.18 375.985 435.414 375.6 434.784 374.845L440.421 361.333C440.852 362.742 441.093 364.611 441.093 366.917C441.104 372.962 439.508 375.985 437.052 375.985ZM433.629 372.45C433.22 371.041 432.999 369.197 432.999 366.917C433.01 360.961 434.595 357.964 437.052 357.964C437.881 357.964 438.616 358.31 439.214 359.002L433.629 372.45Z" fill="#fff"/>
    <path d="M463.198 353.802H458.747C458.695 355.403 456.847 358.131 454.086 358.131V362.537C456.459 362.537 458.002 361.461 458.464 360.59H458.663V380.032H463.198V353.802Z" fill="#fff"/>
    <path d="M482.521 353.802H478.07C478.018 355.403 476.17 358.131 473.409 358.131V362.537C475.782 362.537 477.325 361.461 477.787 360.59H477.986V380.032H482.521V353.802Z" fill="#fff"/>
    <path d="M263.682 439.319C269.089 439.319 272.353 434.298 272.364 425.653C272.374 417.072 269.068 412.154 263.682 412.154C258.286 412.154 255.011 417.059 255 425.653C254.979 434.273 258.265 439.306 263.682 439.319ZM263.682 434.721C262.811 434.721 262.044 434.337 261.414 433.581L267.052 420.069C267.482 421.478 267.724 423.348 267.724 425.653C267.734 431.698 266.139 434.721 263.682 434.721ZM260.26 431.186C259.85 429.777 259.63 427.933 259.63 425.653C259.64 419.698 261.225 416.701 263.682 416.701C264.511 416.701 265.246 417.046 265.845 417.738L260.26 431.186Z" fill="#fff"/>
    <path d="M289.356 439.319C294.763 439.319 298.028 434.298 298.038 425.653C298.049 417.072 294.742 412.154 289.356 412.154C283.96 412.154 280.685 417.059 280.675 425.653C280.654 434.273 283.939 439.306 289.356 439.319ZM289.356 434.721C288.485 434.721 287.719 434.337 287.089 433.581L292.726 420.069C293.157 421.478 293.398 423.348 293.398 425.653C293.409 431.698 291.813 434.721 289.356 434.721ZM285.934 431.186C285.525 429.777 285.304 427.933 285.304 425.653C285.315 419.698 286.9 416.701 289.356 416.701C290.186 416.701 290.921 417.046 291.519 417.738L285.934 431.186Z" fill="#fff"/>
    <path d="M315.503 412.538H311.052C311 414.139 309.152 416.867 306.391 416.867V421.273C308.763 421.273 310.307 420.197 310.769 419.326H310.968V438.768H315.503V412.538Z" fill="#fff"/>
    <path d="M334.354 439.319C339.76 439.319 343.025 434.298 343.036 425.653C343.046 417.072 339.739 412.154 334.354 412.154C328.958 412.154 325.682 417.059 325.672 425.653C325.651 434.273 328.937 439.306 334.354 439.319ZM334.354 434.721C333.483 434.721 332.716 434.337 332.086 433.581L337.724 420.069C338.154 421.478 338.396 423.348 338.396 425.653C338.406 431.698 336.81 434.721 334.354 434.721ZM330.932 431.186C330.522 429.777 330.302 427.933 330.302 425.653C330.312 419.698 331.897 416.701 334.354 416.701C335.183 416.701 335.918 417.046 336.516 417.738L330.932 431.186Z" fill="#fff"/>
    <path d="M360.501 412.538H356.05C355.997 414.139 354.149 416.867 351.388 416.867V421.273C353.761 421.273 355.304 420.197 355.766 419.326H355.966V438.768H360.501V412.538Z" fill="#fff"/>
    <path d="M379.351 439.319C384.758 439.319 388.023 434.298 388.033 425.653C388.044 417.072 384.737 412.154 379.351 412.154C373.955 412.154 370.68 417.059 370.669 425.653C370.648 434.273 373.934 439.306 379.351 439.319ZM379.351 434.721C378.48 434.721 377.714 434.337 377.084 433.581L382.721 420.069C383.152 421.478 383.393 423.348 383.393 425.653C383.404 431.698 381.808 434.721 379.351 434.721ZM375.929 431.186C375.52 429.777 375.299 427.933 375.299 425.653C375.31 419.698 376.895 416.701 379.351 416.701C380.181 416.701 380.916 417.046 381.514 417.738L375.929 431.186Z" fill="#fff"/>
    <path d="M405.498 412.538H401.047C400.995 414.139 399.147 416.867 396.386 416.867V421.273C398.758 421.273 400.302 420.197 400.764 419.326H400.963V438.768H405.498V412.538Z" fill="#fff"/>
    <path d="M424.821 412.538H420.37C420.318 414.139 418.47 416.867 415.709 416.867V421.273C418.081 421.273 419.625 420.197 420.087 419.326H420.286V438.768H424.821V412.538Z" fill="#fff"/>
    <path d="M443.672 439.319C449.078 439.319 452.343 434.298 452.354 425.653C452.364 417.072 449.057 412.154 443.672 412.154C438.276 412.154 435 417.059 434.99 425.653C434.969 434.273 438.255 439.306 443.672 439.319ZM443.672 434.721C442.801 434.721 442.034 434.337 441.404 433.581L447.042 420.069C447.472 421.478 447.714 423.348 447.714 425.653C447.724 431.698 446.128 434.721 443.672 434.721ZM440.25 431.186C439.84 429.777 439.62 427.933 439.62 425.653C439.63 419.698 441.215 416.701 443.672 416.701C444.501 416.701 445.236 417.046 445.835 417.738L440.25 431.186Z" fill="#fff"/>
    <path d="M469.819 412.538H465.368C465.315 414.139 463.467 416.867 460.706 416.867V421.273C463.079 421.273 464.622 420.197 465.084 419.326H465.284V438.768H469.819V412.538Z" fill="#fff"/>
    <path d="M489.142 412.538H484.691C484.638 414.139 482.79 416.867 480.029 416.867V421.273C482.402 421.273 483.945 420.197 484.407 419.326H484.607V438.768H489.142V412.538Z" fill="#fff"/>
    <path d="M264.154 471.274H259.703C259.651 472.875 257.803 475.603 255.042 475.603V480.009C257.415 480.009 258.958 478.933 259.42 478.062H259.619V497.504H264.154V471.274Z" fill="#fff"/>
    <path d="M283.005 498.055C288.412 498.055 291.676 493.034 291.687 484.389C291.697 475.808 288.391 470.89 283.005 470.89C277.609 470.89 274.334 475.795 274.323 484.389C274.302 493.009 277.588 498.042 283.005 498.055ZM283.005 493.457C282.134 493.457 281.367 493.073 280.737 492.317L286.375 478.805C286.805 480.214 287.047 482.084 287.047 484.389C287.057 490.435 285.462 493.457 283.005 493.457ZM279.583 489.922C279.173 488.513 278.953 486.669 278.953 484.389C278.963 478.434 280.549 475.437 283.005 475.437C283.834 475.437 284.569 475.783 285.168 476.474L279.583 489.922Z" fill="#fff"/>
    <path d="M308.679 498.055C314.086 498.055 317.351 493.034 317.361 484.389C317.372 475.808 314.065 470.89 308.679 470.89C303.283 470.89 300.008 475.795 299.998 484.389C299.977 493.009 303.262 498.042 308.679 498.055ZM308.679 493.457C307.808 493.457 307.042 493.073 306.412 492.317L312.049 478.805C312.48 480.214 312.721 482.084 312.721 484.389C312.732 490.435 311.136 493.457 308.679 493.457ZM305.257 489.922C304.848 488.513 304.627 486.669 304.627 484.389C304.638 478.434 306.223 475.437 308.679 475.437C309.509 475.437 310.244 475.783 310.842 476.474L305.257 489.922Z" fill="#fff"/>
    <path d="M334.826 471.274H330.375C330.323 472.875 328.475 475.603 325.714 475.603V480.009C328.087 480.009 329.63 478.933 330.092 478.062H330.291V497.504H334.826V471.274Z" fill="#fff"/>
    <path d="M354.149 471.274H349.698C349.646 472.875 347.798 475.603 345.037 475.603V480.009C347.41 480.009 348.953 478.933 349.415 478.062H349.614V497.504H354.149V471.274Z" fill="#fff"/>
    <path d="M373 498.055C378.407 498.055 381.671 493.034 381.682 484.389C381.692 475.808 378.386 470.89 373 470.89C367.604 470.89 364.329 475.795 364.318 484.389C364.297 493.009 367.583 498.042 373 498.055ZM373 493.457C372.129 493.457 371.362 493.073 370.732 492.317L376.37 478.805C376.8 480.214 377.042 482.084 377.042 484.389C377.052 490.435 375.457 493.457 373 493.457ZM369.578 489.922C369.168 488.513 368.948 486.669 368.948 484.389C368.958 478.434 370.543 475.437 373 475.437C373.829 475.437 374.564 475.783 375.163 476.474L369.578 489.922Z" fill="#fff"/>
    <path d="M398.674 498.055C404.081 498.055 407.346 493.034 407.356 484.389C407.367 475.808 404.06 470.89 398.674 470.89C393.278 470.89 390.003 475.795 389.993 484.389C389.972 493.009 393.257 498.042 398.674 498.055ZM398.674 493.457C397.803 493.457 397.037 493.073 396.407 492.317L402.044 478.805C402.475 480.214 402.716 482.084 402.716 484.389C402.727 490.435 401.131 493.457 398.674 493.457ZM395.252 489.922C394.843 488.513 394.622 486.669 394.622 484.389C394.633 478.434 396.218 475.437 398.674 475.437C399.504 475.437 400.239 475.783 400.837 476.474L395.252 489.922Z" fill="#fff"/>
    <path d="M424.821 471.274H420.37C420.318 472.875 418.47 475.603 415.709 475.603V480.009C418.081 480.009 419.625 478.933 420.087 478.062H420.286V497.504H424.821V471.274Z" fill="#fff"/>
    <path d="M444.144 471.274H439.693C439.641 472.875 437.793 475.603 435.032 475.603V480.009C437.405 480.009 438.948 478.933 439.41 478.062H439.609V497.504H444.144V471.274Z" fill="#fff"/>
    <path d="M463.467 471.274H459.016C458.964 472.875 457.116 475.603 454.355 475.603V480.009C456.728 480.009 458.271 478.933 458.733 478.062H458.932V497.504H463.467V471.274Z" fill="#fff"/>
    <path d="M482.318 498.055C487.725 498.055 490.989 493.034 491 484.389C491.01 475.808 487.704 470.89 482.318 470.89C476.922 470.89 473.647 475.795 473.636 484.389C473.615 493.009 476.901 498.042 482.318 498.055ZM482.318 493.457C481.447 493.457 480.68 493.073 480.05 492.317L485.688 478.805C486.118 480.214 486.36 482.084 486.36 484.389C486.37 490.435 484.775 493.457 482.318 493.457ZM478.896 489.922C478.486 488.513 478.266 486.669 478.266 484.389C478.276 478.434 479.861 475.437 482.318 475.437C483.147 475.437 483.882 475.783 484.481 476.474L478.896 489.922Z" fill="#fff"/>
    <path d="M264.154 530.011H259.703C259.651 531.612 257.803 534.34 255.042 534.34V538.745C257.415 538.745 258.958 537.67 259.42 536.799H259.619V556.241H264.154V530.011Z" fill="#fff"/>
    <path d="M283.477 530.011H279.026C278.974 531.612 277.126 534.34 274.365 534.34V538.745C276.738 538.745 278.281 537.67 278.743 536.799H278.942V556.241H283.477V530.011Z" fill="#fff"/>
    <path d="M302.328 556.791C307.735 556.791 311 551.771 311.01 543.126C311.021 534.544 307.714 529.626 302.328 529.626C296.932 529.626 293.657 534.532 293.646 543.126C293.625 551.745 296.911 556.778 302.328 556.791ZM302.328 552.193C301.457 552.193 300.69 551.809 300.061 551.053L305.698 537.541C306.128 538.95 306.37 540.82 306.37 543.126C306.38 549.171 304.785 552.193 302.328 552.193ZM298.906 548.658C298.496 547.25 298.276 545.405 298.276 543.126C298.286 537.17 299.872 534.173 302.328 534.173C303.157 534.173 303.892 534.519 304.491 535.211L298.906 548.658Z" fill="#fff"/>
    <path d="M328.475 530.011H324.024C323.971 531.612 322.124 534.34 319.363 534.34V538.745C321.735 538.745 323.278 537.67 323.74 536.799H323.94V556.241H328.475V530.011Z" fill="#fff"/>
    <path d="M347.326 556.791C352.732 556.791 355.997 551.771 356.008 543.126C356.018 534.544 352.711 529.626 347.326 529.626C341.93 529.626 338.654 534.532 338.644 543.126C338.623 551.745 341.909 556.778 347.326 556.791ZM347.326 552.193C346.454 552.193 345.688 551.809 345.058 551.053L350.696 537.541C351.126 538.95 351.367 540.82 351.367 543.126C351.378 549.171 349.782 552.193 347.326 552.193ZM343.903 548.658C343.494 547.25 343.273 545.405 343.273 543.126C343.284 537.17 344.869 534.173 347.326 534.173C348.155 534.173 348.89 534.519 349.488 535.211L343.903 548.658Z" fill="#fff"/>
    <path d="M373 556.791C378.407 556.791 381.671 551.771 381.682 543.126C381.692 534.544 378.386 529.626 373 529.626C367.604 529.626 364.329 534.532 364.318 543.126C364.297 551.745 367.583 556.778 373 556.791ZM373 552.193C372.129 552.193 371.362 551.809 370.732 551.053L376.37 537.541C376.8 538.95 377.042 540.82 377.042 543.126C377.052 549.171 375.457 552.193 373 552.193ZM369.578 548.658C369.168 547.25 368.948 545.405 368.948 543.126C368.958 537.17 370.543 534.173 373 534.173C373.829 534.173 374.564 534.519 375.163 535.211L369.578 548.658Z" fill="#fff"/>
    <path d="M399.147 530.011H394.696C394.643 531.612 392.796 534.34 390.035 534.34V538.745C392.407 538.745 393.95 537.67 394.412 536.799H394.612V556.241H399.147V530.011Z" fill="#fff"/>
    <path d="M417.998 556.791C423.404 556.791 426.669 551.771 426.679 543.126C426.69 534.544 423.383 529.626 417.998 529.626C412.602 529.626 409.326 534.532 409.316 543.126C409.295 551.745 412.581 556.778 417.998 556.791ZM417.998 552.193C417.126 552.193 416.36 551.809 415.73 551.053L421.367 537.541C421.798 538.95 422.039 540.82 422.039 543.126C422.05 549.171 420.454 552.193 417.998 552.193ZM414.575 548.658C414.166 547.25 413.945 545.405 413.945 543.126C413.956 537.17 415.541 534.173 417.998 534.173C418.827 534.173 419.562 534.519 420.16 535.211L414.575 548.658Z" fill="#fff"/>
    <path d="M444.144 530.011H439.693C439.641 531.612 437.793 534.34 435.032 534.34V538.745C437.405 538.745 438.948 537.67 439.41 536.799H439.609V556.241H444.144V530.011Z" fill="#fff"/>
    <path d="M463.467 530.011H459.016C458.964 531.612 457.116 534.34 454.355 534.34V538.745C456.728 538.745 458.271 537.67 458.733 536.799H458.932V556.241H463.467V530.011Z" fill="#fff"/>
    <path d="M482.318 556.791C487.725 556.791 490.989 551.771 491 543.126C491.01 534.544 487.704 529.626 482.318 529.626C476.922 529.626 473.647 534.532 473.636 543.126C473.615 551.745 476.901 556.778 482.318 556.791ZM482.318 552.193C481.447 552.193 480.68 551.809 480.05 551.053L485.688 537.541C486.118 538.95 486.36 540.82 486.36 543.126C486.37 549.171 484.775 552.193 482.318 552.193ZM478.896 548.658C478.486 547.25 478.266 545.405 478.266 543.126C478.276 537.17 479.861 534.173 482.318 534.173C483.147 534.173 483.882 534.519 484.481 535.211L478.896 548.658Z" fill="#fff"/>
    <path d="M264.154 588.747H259.703C259.651 590.348 257.803 593.076 255.042 593.076V597.482C257.415 597.482 258.958 596.406 259.42 595.535H259.619V614.977H264.154V588.747Z" fill="#fff"/>
    <path d="M283.477 588.747H279.026C278.974 590.348 277.126 593.076 274.365 593.076V597.482C276.738 597.482 278.281 596.406 278.743 595.535H278.942V614.977H283.477V588.747Z" fill="#fff"/>
    <path d="M302.801 588.747H298.349C298.297 590.348 296.449 593.076 293.688 593.076V597.482C296.061 597.482 297.604 596.406 298.066 595.535H298.265V614.977H302.801V588.747Z" fill="#fff"/>
    <path d="M321.651 615.527C327.058 615.527 330.323 610.507 330.333 601.862C330.344 593.281 327.037 588.363 321.651 588.363C316.255 588.363 312.98 593.268 312.969 601.862C312.948 610.481 316.234 615.515 321.651 615.527ZM321.651 610.93C320.78 610.93 320.014 610.545 319.384 609.79L325.021 596.278C325.452 597.687 325.693 599.556 325.693 601.862C325.703 607.907 324.108 610.93 321.651 610.93ZM318.229 607.395C317.819 605.986 317.599 604.142 317.599 601.862C317.609 595.906 319.195 592.909 321.651 592.909C322.481 592.909 323.215 593.255 323.814 593.947L318.229 607.395Z" fill="#fff"/>
    <path d="M347.326 615.527C352.732 615.527 355.997 610.507 356.008 601.862C356.018 593.281 352.711 588.363 347.326 588.363C341.93 588.363 338.654 593.268 338.644 601.862C338.623 610.481 341.909 615.515 347.326 615.527ZM347.326 610.93C346.454 610.93 345.688 610.545 345.058 609.79L350.696 596.278C351.126 597.687 351.367 599.556 351.367 601.862C351.378 607.907 349.782 610.93 347.326 610.93ZM343.903 607.395C343.494 605.986 343.273 604.142 343.273 601.862C343.284 595.906 344.869 592.909 347.326 592.909C348.155 592.909 348.89 593.255 349.488 593.947L343.903 607.395Z" fill="#fff"/>
    <path d="M373.472 588.747H369.021C368.969 590.348 367.121 593.076 364.36 593.076V597.482C366.733 597.482 368.276 596.406 368.738 595.535H368.937V614.977H373.472V588.747Z" fill="#fff"/>
    <path d="M392.796 588.747H388.344C388.292 590.348 386.444 593.076 383.683 593.076V597.482C386.056 597.482 387.599 596.406 388.061 595.535H388.26V614.977H392.796V588.747Z" fill="#fff"/>
    <path d="M411.646 615.527C417.053 615.527 420.318 610.507 420.328 601.862C420.339 593.281 417.032 588.363 411.646 588.363C406.25 588.363 402.975 593.268 402.964 601.862C402.943 610.481 406.229 615.515 411.646 615.527ZM411.646 610.93C410.775 610.93 410.008 610.545 409.379 609.79L415.016 596.278C415.446 597.687 415.688 599.556 415.688 601.862C415.698 607.907 414.103 610.93 411.646 610.93ZM408.224 607.395C407.814 605.986 407.594 604.142 407.594 601.862C407.604 595.906 409.19 592.909 411.646 592.909C412.476 592.909 413.21 593.255 413.809 593.947L408.224 607.395Z" fill="#fff"/>
    <path d="M437.321 615.527C442.727 615.527 445.992 610.507 446.002 601.862C446.013 593.281 442.706 588.363 437.321 588.363C431.925 588.363 428.649 593.268 428.639 601.862C428.618 610.481 431.904 615.515 437.321 615.527ZM437.321 610.93C436.449 610.93 435.683 610.545 435.053 609.79L440.69 596.278C441.121 597.687 441.362 599.556 441.362 601.862C441.373 607.907 439.777 610.93 437.321 610.93ZM433.898 607.395C433.489 605.986 433.268 604.142 433.268 601.862C433.279 595.906 434.864 592.909 437.321 592.909C438.15 592.909 438.885 593.255 439.483 593.947L433.898 607.395Z" fill="#fff"/>
    <path d="M463.467 588.747H459.016C458.964 590.348 457.116 593.076 454.355 593.076V597.482C456.728 597.482 458.271 596.406 458.733 595.535H458.932V614.977H463.467V588.747Z" fill="#fff"/>
    <path d="M482.318 615.527C487.725 615.527 490.989 610.507 491 601.862C491.01 593.281 487.704 588.363 482.318 588.363C476.922 588.363 473.647 593.268 473.636 601.862C473.615 610.481 476.901 615.515 482.318 615.527ZM482.318 610.93C481.447 610.93 480.68 610.545 480.05 609.79L485.688 596.278C486.118 597.687 486.36 599.556 486.36 601.862C486.37 607.907 484.775 610.93 482.318 610.93ZM478.896 607.395C478.486 605.986 478.266 604.142 478.266 601.862C478.276 595.906 479.861 592.909 482.318 592.909C483.147 592.909 483.882 593.255 484.481 593.947L478.896 607.395Z" fill="#fff"/>
    <path d="M264.154 647.483H259.703C259.651 649.084 257.803 651.812 255.042 651.812V656.218C257.415 656.218 258.958 655.142 259.42 654.271H259.619V673.713H264.154V647.483Z" fill="#fff"/>
    <path d="M283.005 674.264C288.412 674.264 291.676 669.243 291.687 660.598C291.697 652.017 288.391 647.099 283.005 647.099C277.609 647.099 274.334 652.004 274.323 660.598C274.302 669.218 277.588 674.251 283.005 674.264ZM283.005 669.666C282.134 669.666 281.367 669.282 280.737 668.526L286.375 655.014C286.805 656.423 287.047 658.293 287.047 660.598C287.057 666.643 285.462 669.666 283.005 669.666ZM279.583 666.131C279.173 664.722 278.953 662.878 278.953 660.598C278.963 654.643 280.549 651.646 283.005 651.646C283.834 651.646 284.569 651.991 285.168 652.683L279.583 666.131Z" fill="#fff"/>
    <path d="M309.152 647.483H304.701C304.648 649.084 302.801 651.812 300.04 651.812V656.218C302.412 656.218 303.955 655.142 304.417 654.271H304.617V673.713H309.152V647.483Z" fill="#fff"/>
    <path d="M328.475 647.483H324.024C323.971 649.084 322.124 651.812 319.363 651.812V656.218C321.735 656.218 323.278 655.142 323.74 654.271H323.94V673.713H328.475V647.483Z" fill="#fff"/>
    <path d="M347.326 674.264C352.732 674.264 355.997 669.243 356.008 660.598C356.018 652.017 352.711 647.099 347.326 647.099C341.93 647.099 338.654 652.004 338.644 660.598C338.623 669.218 341.909 674.251 347.326 674.264ZM347.326 669.666C346.454 669.666 345.688 669.282 345.058 668.526L350.696 655.014C351.126 656.423 351.367 658.293 351.367 660.598C351.378 666.643 349.782 669.666 347.326 669.666ZM343.903 666.131C343.494 664.722 343.273 662.878 343.273 660.598C343.284 654.643 344.869 651.646 347.326 651.646C348.155 651.646 348.89 651.991 349.488 652.683L343.903 666.131Z" fill="#fff"/>
    <path d="M373 674.264C378.407 674.264 381.671 669.243 381.682 660.598C381.692 652.017 378.386 647.099 373 647.099C367.604 647.099 364.329 652.004 364.318 660.598C364.297 669.218 367.583 674.251 373 674.264ZM373 669.666C372.129 669.666 371.362 669.282 370.732 668.526L376.37 655.014C376.8 656.423 377.042 658.293 377.042 660.598C377.052 666.643 375.457 669.666 373 669.666ZM369.578 666.131C369.168 664.722 368.948 662.878 368.948 660.598C368.958 654.643 370.543 651.646 373 651.646C373.829 651.646 374.564 651.991 375.163 652.683L369.578 666.131Z" fill="#fff"/>
    <path d="M399.147 647.483H394.696C394.643 649.084 392.796 651.812 390.035 651.812V656.218C392.407 656.218 393.95 655.142 394.412 654.271H394.612V673.713H399.147V647.483Z" fill="#fff"/>
    <path d="M417.998 674.264C423.404 674.264 426.669 669.243 426.679 660.598C426.69 652.017 423.383 647.099 417.998 647.099C412.602 647.099 409.326 652.004 409.316 660.598C409.295 669.218 412.581 674.251 417.998 674.264ZM417.998 669.666C417.126 669.666 416.36 669.282 415.73 668.526L421.367 655.014C421.798 656.423 422.039 658.293 422.039 660.598C422.05 666.643 420.454 669.666 417.998 669.666ZM414.575 666.131C414.166 664.722 413.945 662.878 413.945 660.598C413.956 654.643 415.541 651.646 417.998 651.646C418.827 651.646 419.562 651.991 420.16 652.683L414.575 666.131Z" fill="#fff"/>
    <path d="M444.144 647.483H439.693C439.641 649.084 437.793 651.812 435.032 651.812V656.218C437.405 656.218 438.948 655.142 439.41 654.271H439.609V673.713H444.144V647.483Z" fill="#fff"/>
    <path d="M462.995 674.264C468.401 674.264 471.666 669.243 471.677 660.598C471.687 652.017 468.38 647.099 462.995 647.099C457.599 647.099 454.324 652.004 454.313 660.598C454.292 669.218 457.578 674.251 462.995 674.264ZM462.995 669.666C462.124 669.666 461.357 669.282 460.727 668.526L466.365 655.014C466.795 656.423 467.037 658.293 467.037 660.598C467.047 666.643 465.452 669.666 462.995 669.666ZM459.573 666.131C459.163 664.722 458.943 662.878 458.943 660.598C458.953 654.643 460.538 651.646 462.995 651.646C463.824 651.646 464.559 651.991 465.158 652.683L459.573 666.131Z" fill="#fff"/>
    <path d="M489.142 647.483H484.691C484.638 649.084 482.79 651.812 480.029 651.812V656.218C482.402 656.218 483.945 655.142 484.407 654.271H484.607V673.713H489.142V647.483Z" fill="#fff"/>
  </g>
</svg>